<?xml version="1.0" encoding="UTF-8" standalone="no"?>
<!DOCTYPE svg PUBLIC "-//W3C//DTD SVG 1.1//EN" "http://www.w3.org/Graphics/SVG/1.1/DTD/svg11.dtd">
<svg width="100%" height="100%" viewBox="0 0 750 750" version="1.1" xmlns="http://www.w3.org/2000/svg" xmlns:xlink="http://www.w3.org/1999/xlink" xml:space="preserve" xmlns:serif="http://www.serif.com/" style="fill-rule:evenodd;clip-rule:evenodd;stroke-linecap:round;stroke-linejoin:round;stroke-miterlimit:1.5;">
    <g transform="matrix(0.822579,0,0,0.814311,73.3639,-100.052)">
        <circle cx="363.275" cy="573.545" r="323.922" style="fill:white;stroke:black;stroke-width:39.8px;"/>
    </g>
    <g transform="matrix(0.723208,0,0,0.863847,145.821,-111.403)">
        <path d="M199.314,483.784L565.745,483.784L440.255,609.275L234.451,609.275L161.667,390.922L61.275,390.922" style="fill:none;stroke:black;stroke-width:32.94px;"/>
    </g>
    <g transform="matrix(0.723208,0,0,0.863847,145.821,-111.403)">
        <path d="M234.451,609.275L194.294,682.059L432.725,682.059" style="fill:none;stroke:black;stroke-width:32.94px;"/>
    </g>
    <g transform="matrix(0.723208,0,0,0.863847,194.829,-111.403)">
        <path d="M274.608,483.784L274.608,609.275" style="fill:none;stroke:black;stroke-width:32.94px;"/>
    </g>
    <g transform="matrix(0.723208,0,0,0.777462,149.451,-63.107)">
        <path d="M274.608,483.784L274.608,609.275" style="fill:none;stroke:black;stroke-width:34.95px;"/>
    </g>
    <g transform="matrix(0.723208,0,0,0.863847,238.392,-111.403)">
        <path d="M274.608,483.784L274.608,609.275" style="fill:none;stroke:black;stroke-width:32.94px;"/>
    </g>
    <g transform="matrix(0.723208,0,0,0.633303,280.139,6.63476)">
        <path d="M274.608,483.784L274.608,609.275" style="fill:none;stroke:black;stroke-width:38.61px;"/>
    </g>
    <g transform="matrix(0.723208,0,0,0.863847,251.098,-113.571)">
        <circle cx="228.804" cy="764.255" r="19.451" style="stroke:black;stroke-width:40.89px;"/>
    </g>
    <g transform="matrix(0.723208,0,0,0.863847,144.006,-113.571)">
        <circle cx="228.804" cy="764.255" r="19.451" style="stroke:black;stroke-width:40.89px;"/>
    </g>
</svg>
