<?xml version="1.0" encoding="UTF-8" standalone="no"?>
<!DOCTYPE svg PUBLIC "-//W3C//DTD SVG 1.1//EN" "http://www.w3.org/Graphics/SVG/1.1/DTD/svg11.dtd">
<svg width="100%" height="100%" viewBox="0 0 750 750" version="1.1" xmlns="http://www.w3.org/2000/svg" xmlns:xlink="http://www.w3.org/1999/xlink" xml:space="preserve" xmlns:serif="http://www.serif.com/" style="fill-rule:evenodd;clip-rule:evenodd;stroke-linecap:round;stroke-linejoin:round;stroke-miterlimit:1.5;">
    <g transform="matrix(1,0,0,1,-33.7349,0)">
        <circle cx="400.281" cy="371.532" r="238.611" style="fill:rgb(215,35,35);stroke:white;stroke-width:20.59px;"/>
    </g>
    <g transform="matrix(2.71223,0.623748,-0.64989,2.6879,-243.248,-1199.15)">
        <path d="M379.819,514.605L400.743,435.646L406.665,437.225L380.964,514.763L379.819,514.605Z" style="fill:white;"/>
    </g>
    <g transform="matrix(2.20033,1.67994,-1.7138,2.18899,490.61,-1359.73)">
        <path d="M379.819,514.605L400.743,435.646L406.665,437.225L380.964,514.763L379.819,514.605Z" style="fill:white;"/>
    </g>
    <g transform="matrix(19.1898,0,0,14.3819,-4067.55,-6479.31)">
        <path d="M229.248,468.938C229.221,468.919 229.209,468.896 229.217,468.865C229.224,468.834 229.228,468.803 229.228,468.776C229.228,468.726 229.224,468.664 229.205,468.621C229.178,468.575 229.136,468.494 229.105,468.459C229.085,468.448 229.062,468.436 229.031,468.424C229,468.417 228.977,468.405 228.958,468.39C228.954,468.374 228.954,468.366 228.958,468.366C228.969,468.37 228.962,468.328 228.954,468.32L228.931,468.297C228.912,468.27 228.885,468.251 228.854,468.239C228.792,468.216 228.734,468.177 228.688,468.135C228.66,468.115 228.637,468.096 228.614,468.081C228.564,468.05 228.502,468.03 228.437,468.046C228.371,468.061 228.305,468.081 228.24,468.1C228.174,468.123 228.112,468.142 228.054,468.162C228.031,468.173 228.012,468.181 227.993,468.185C227.954,468.196 227.9,468.216 227.853,468.258C227.83,468.281 227.807,468.301 227.78,468.32C227.761,468.328 227.738,468.332 227.718,468.336C227.699,468.339 227.676,468.351 227.653,468.37C227.633,468.39 227.61,468.397 227.587,468.401C227.537,468.405 227.494,468.444 227.463,468.471C227.448,468.486 227.428,468.502 227.409,468.513C227.394,468.529 227.363,468.552 227.332,468.575C227.301,468.598 227.266,468.614 227.251,468.61C227.247,468.637 227.235,468.656 227.216,468.66C227.177,468.672 227.123,468.679 227.108,468.702C227.096,468.714 227.084,468.733 227.065,468.753C226.988,468.826 226.895,468.888 226.814,468.946C226.806,468.95 226.799,468.954 226.795,468.957C226.791,468.961 226.787,468.965 226.787,468.969L226.764,468.969C226.737,468.95 226.725,468.957 226.725,468.988C226.706,469.008 226.694,469.023 226.683,469.042C226.671,469.062 226.656,469.077 226.636,469.089C226.633,469.093 226.625,469.1 226.613,469.104C226.59,469.12 226.582,469.131 226.575,469.147C226.571,469.158 226.563,469.166 226.555,469.17C226.54,469.189 226.525,469.201 226.505,469.205C226.471,469.22 226.44,469.27 226.436,469.297C226.432,469.313 226.424,469.328 226.413,469.34C226.409,469.351 226.401,469.367 226.393,469.382C226.378,469.417 226.355,469.448 226.335,469.452C226.324,469.456 226.316,469.467 226.312,469.487C226.293,469.529 226.301,469.575 226.312,469.622C226.324,469.684 226.347,469.734 226.374,469.776C226.401,469.819 226.432,469.865 226.459,469.915C226.501,469.973 226.552,470.043 226.609,470.07C226.617,470.074 226.625,470.07 226.633,470.066C226.636,470.062 226.644,470.058 226.648,470.062C226.66,470.066 226.667,470.074 226.679,470.082C226.698,470.097 226.737,470.12 226.772,470.139C226.787,470.151 226.806,470.163 226.826,470.174C226.887,470.217 226.957,470.251 227.034,470.286C227.1,470.325 227.169,470.364 227.243,470.402C227.316,470.441 227.386,470.479 227.459,470.522C227.51,470.549 227.56,470.572 227.602,470.591C227.645,470.611 227.687,470.626 227.73,470.646C227.811,470.684 227.888,470.734 227.981,470.815C228.054,470.877 228.105,470.982 228.105,471.086C228.105,471.175 228.101,471.291 228.043,471.364C228.024,471.383 228,471.399 227.977,471.41C227.954,471.422 227.935,471.441 227.919,471.461C227.904,471.48 227.884,471.499 227.865,471.515C227.846,471.53 227.826,471.546 227.815,471.565C227.811,471.569 227.807,471.576 227.807,471.584C227.807,471.596 227.803,471.604 227.799,471.607C227.788,471.619 227.772,471.627 227.761,471.631L227.718,471.642C227.66,471.669 227.606,471.704 227.564,471.739C227.556,471.743 227.548,471.75 227.544,471.754L227.521,471.77C227.51,471.773 227.498,471.781 227.494,471.785C227.486,471.793 227.479,471.801 227.471,471.804C227.452,471.82 227.436,471.82 227.421,471.808C227.374,471.812 227.336,471.828 227.301,471.847C227.289,471.851 227.266,471.855 227.239,471.858C227.177,471.866 227.108,471.882 227.061,471.897C227.034,471.905 227.023,471.912 227.019,471.924C226.992,471.901 226.965,471.893 226.934,471.897C226.903,471.901 226.872,471.897 226.845,471.885C226.829,471.882 226.822,471.878 226.822,471.874C226.822,471.874 226.826,471.874 226.829,471.87C226.833,471.87 226.837,471.866 226.841,471.862C226.845,471.858 226.845,471.851 226.841,471.835C226.814,471.746 226.802,471.692 226.814,471.604C226.818,471.569 226.818,471.534 226.818,471.503C226.814,471.476 226.814,471.445 226.818,471.41C226.818,471.376 226.818,471.337 226.822,471.298C226.822,471.264 226.822,471.229 226.818,471.194C226.818,471.159 226.818,471.132 226.822,471.109C226.826,471.09 226.822,471.063 226.814,471.036C226.795,470.985 226.76,470.951 226.718,470.939C226.629,470.912 226.567,470.966 226.536,471.028C226.517,471.063 226.501,471.09 226.486,471.109C226.459,471.144 226.44,471.179 226.432,471.209C226.424,471.24 226.413,471.275 226.401,471.314C226.393,471.341 226.393,471.368 226.401,471.391C226.413,471.437 226.413,471.503 226.378,471.549C226.359,471.576 226.347,471.604 226.343,471.634C226.339,471.658 226.332,471.677 226.328,471.696C226.324,471.716 226.324,471.735 226.328,471.754C226.343,471.797 226.397,471.843 226.424,471.87C226.467,471.901 226.513,471.928 226.559,471.955L226.691,472.028C226.691,472.036 226.687,472.04 226.683,472.043C226.733,472.055 226.787,472.051 226.814,472.113C226.837,472.094 226.86,472.094 226.88,472.105C226.899,472.121 226.918,472.136 226.941,472.148C227.003,472.179 227.088,472.186 227.162,472.198C227.189,472.202 227.224,472.209 227.258,472.217C227.328,472.233 227.382,472.225 227.459,472.202C227.494,472.19 227.533,472.182 227.568,472.179C227.595,472.175 227.618,472.167 227.637,472.163C227.676,472.152 227.741,472.132 227.796,472.125C227.823,472.121 227.853,472.113 227.888,472.094C227.915,472.082 227.942,472.07 227.969,472.063C228.027,472.047 228.101,472.02 228.151,471.986C228.197,471.951 228.259,471.909 228.309,471.893C228.336,471.889 228.359,471.874 228.379,471.855C228.406,471.828 228.452,471.777 228.464,471.746C228.491,471.688 228.56,471.596 228.603,471.538C228.664,471.476 228.66,471.445 228.657,471.372C228.653,471.252 228.637,471.14 228.56,471.036C228.471,470.912 228.371,470.827 228.247,470.738C228.132,470.657 228.016,470.584 227.896,470.51C227.776,470.441 227.66,470.367 227.548,470.286C227.521,470.267 227.494,470.255 227.467,470.244C227.44,470.232 227.417,470.221 227.39,470.201C227.37,470.197 227.355,470.186 227.34,470.174L227.282,470.136C227.243,470.109 227.204,470.089 227.162,470.07C227.119,470.054 227.077,470.031 227.034,470.004C226.945,469.946 226.911,469.908 226.907,469.78C226.903,469.769 226.907,469.753 226.914,469.742C226.918,469.73 226.926,469.718 226.93,469.699C226.934,469.68 226.926,469.668 226.914,469.657C226.903,469.645 226.895,469.633 226.899,469.618C226.903,469.606 226.903,469.606 226.899,469.614C226.895,469.626 226.895,469.622 226.899,469.61C226.907,469.599 226.911,469.587 226.914,469.579C226.914,469.564 226.949,469.541 226.972,469.525C226.996,469.514 227.007,469.483 227.007,469.471C227.003,469.46 227.011,469.44 227.026,469.433C227.042,469.425 227.073,469.406 227.081,469.382C227.084,469.371 227.088,469.363 227.1,469.351C227.119,469.332 227.139,469.317 227.158,469.313C227.2,469.301 227.227,469.263 227.231,469.243L227.243,469.216C227.254,469.205 227.27,469.189 227.289,469.178C227.309,469.166 227.324,469.158 227.34,469.147C227.428,469.073 227.51,469.004 227.583,468.915C227.602,468.888 227.629,468.865 227.66,468.845C227.722,468.811 227.792,468.78 227.857,468.749C227.892,468.737 227.923,468.718 227.95,468.699C228.008,468.656 228.043,468.633 228.101,468.606C228.128,468.594 228.155,468.579 228.182,468.567C228.205,468.556 228.232,468.548 228.263,468.54C228.298,468.529 228.332,468.509 228.363,468.49C228.39,468.471 228.425,468.451 228.46,468.44C228.549,468.405 228.626,468.374 228.715,468.343C228.719,468.363 228.715,468.374 228.707,468.378C228.688,468.386 228.719,468.413 228.743,468.424C228.766,468.436 228.774,468.459 228.774,468.482L228.774,468.517C228.774,468.59 228.789,468.645 228.809,468.679C228.824,468.714 228.812,468.757 228.789,468.784C228.766,468.815 228.77,468.849 228.785,468.865C228.789,468.872 228.793,468.88 228.793,468.888C228.793,468.899 228.789,468.915 228.778,468.93C228.758,468.961 228.75,468.996 228.754,469.023C228.754,469.035 228.754,469.05 228.75,469.066C228.739,469.085 228.719,469.127 228.707,469.154C228.692,469.181 228.688,469.193 228.688,469.228C228.688,469.27 228.688,469.282 228.657,469.294C228.653,469.309 228.657,469.321 228.668,469.328C228.692,469.348 228.692,469.378 228.676,469.409L228.657,469.456C228.645,469.491 228.633,469.525 228.63,469.56C228.626,469.595 228.614,469.626 228.603,469.66C228.599,469.676 228.591,469.691 228.579,469.711C228.568,469.73 228.56,469.749 228.552,469.769C228.537,469.811 228.521,469.854 228.525,469.888C228.545,469.977 228.614,469.989 228.688,469.977C228.766,469.966 228.785,469.942 228.828,469.869C228.878,469.796 228.924,469.722 228.955,469.649C228.982,469.575 229.001,469.518 229.036,469.46C229.04,469.448 229.047,469.433 229.059,469.417C229.07,469.402 229.082,469.382 229.094,469.363C229.097,469.351 229.101,469.344 229.109,469.336C229.12,469.324 229.132,469.305 229.117,469.29C229.144,469.166 229.19,469.058 229.248,468.938Z" style="fill:white;fill-rule:nonzero;"/>
        <path d="M231.94,470.156C231.898,470.125 231.871,470.106 231.859,470.102C231.844,470.098 231.828,470.11 231.809,470.129L231.62,470.33C231.608,470.349 231.593,470.365 231.573,470.376C231.554,470.392 231.538,470.411 231.531,470.43C231.523,470.457 231.511,470.476 231.496,470.488C231.48,470.503 231.465,470.523 231.453,470.542C231.407,470.631 231.365,470.716 231.303,470.789C231.229,470.866 231.175,470.951 231.16,471.071C231.16,471.075 231.16,471.079 231.156,471.082L231.148,471.094C231.114,471.14 231.083,471.191 231.06,471.248C231.037,471.306 231.014,471.36 230.987,471.418C230.925,471.553 230.851,471.669 230.763,471.781C230.747,471.808 230.728,471.827 230.701,471.839L230.705,471.754C230.701,471.727 230.697,471.712 230.697,471.685C230.693,471.615 230.689,471.546 230.689,471.472C230.685,471.403 230.685,471.333 230.681,471.264C230.681,471.241 230.685,471.225 230.689,471.218C230.701,471.198 230.705,471.175 230.701,471.156C230.697,471.136 230.689,471.113 230.685,471.09C230.674,471.025 230.662,470.951 230.689,470.901C230.716,470.843 230.72,470.778 230.731,470.712C230.739,470.669 230.743,470.623 230.743,470.581C230.743,470.538 230.751,470.496 230.77,470.453C230.797,470.38 230.808,470.303 230.797,470.222C230.793,470.133 230.82,470.063 230.851,470.002C230.886,469.936 230.917,469.874 230.874,469.782C230.87,469.766 230.87,469.751 230.874,469.731C230.878,469.716 230.878,469.701 230.878,469.685C230.878,469.67 230.878,469.654 230.882,469.639L230.882,469.596C230.843,469.562 230.805,469.535 230.766,469.519C230.723,469.508 230.685,469.488 230.65,469.469C230.608,469.442 230.565,469.427 230.527,469.419C230.5,469.415 230.461,469.427 230.461,469.442C230.449,469.531 230.449,469.616 230.407,469.689L230.415,469.72C230.43,469.77 230.434,469.816 230.422,469.851C230.399,469.924 230.353,469.982 230.322,470.025C230.303,470.048 230.287,470.075 230.276,470.102C230.248,470.183 230.202,470.249 230.156,470.314L230.071,470.442C230.013,470.527 229.962,470.627 229.908,470.723C229.881,470.774 229.854,470.828 229.835,470.886C229.8,470.994 229.719,471.067 229.599,471.129C229.595,471.109 229.595,471.09 229.591,471.071C229.588,471.052 229.591,471.036 229.595,471.021C229.611,470.943 229.611,470.862 229.611,470.781C229.611,470.704 229.615,470.627 229.642,470.554C229.645,470.55 229.642,470.538 229.638,470.523C229.634,470.403 229.63,470.295 229.657,470.191C229.669,470.133 229.684,470.071 229.673,470.006C229.665,469.917 229.68,469.843 229.715,469.782C229.742,469.739 229.75,469.689 229.761,469.639C229.773,469.585 229.742,469.542 229.669,469.515L229.495,469.446C229.356,469.388 229.314,469.403 229.287,469.523C229.283,469.535 229.283,469.55 229.287,469.562C229.287,469.573 229.287,469.589 229.283,469.6C229.271,469.712 229.26,469.824 229.252,469.936C229.244,470.048 229.229,470.16 229.209,470.268C229.206,470.303 229.206,470.341 229.206,470.376C229.206,470.453 229.202,470.53 229.186,470.604C229.179,470.639 229.171,470.677 229.167,470.716C229.148,470.851 229.144,470.994 229.14,471.136C229.14,471.214 229.144,471.283 229.171,471.364C229.198,471.43 229.225,471.472 229.298,471.499C229.449,471.557 229.603,471.611 229.758,471.661C229.765,471.665 229.773,471.669 229.785,471.669C229.792,471.669 229.8,471.669 229.808,471.673C229.897,471.685 229.951,471.661 229.966,471.584C229.982,471.511 230.021,471.461 230.071,471.414C230.129,471.356 230.16,471.287 230.148,471.21C230.144,471.187 230.144,471.167 230.148,471.148C230.16,471.117 230.179,471.09 230.21,471.063C230.222,471.052 230.237,471.036 230.253,471.017C230.264,471.075 230.268,471.106 230.268,471.136C230.272,471.202 230.272,471.268 230.268,471.333C230.264,471.399 230.272,471.472 230.295,471.546C230.33,471.65 230.372,471.75 230.361,471.847C230.361,471.858 230.365,471.874 230.376,471.893L230.403,471.943C230.423,471.974 230.446,472.001 230.473,472.024L230.469,472.028C230.473,472.032 230.481,472.032 230.484,472.032L230.496,472.044C230.523,472.063 230.546,472.082 230.577,472.094L230.693,472.159C230.759,472.19 230.817,472.213 230.878,472.213C230.936,472.148 230.987,472.074 231.014,471.982C231.029,471.939 231.052,471.897 231.079,471.862C231.106,471.827 231.13,471.789 231.149,471.746C231.168,471.696 231.191,471.665 231.234,471.623C231.28,471.565 231.33,471.511 231.346,471.438C231.373,471.341 231.415,471.272 231.466,471.206L231.535,471.102C231.558,471.067 231.574,471.028 231.581,470.982C231.585,470.947 231.597,470.913 231.612,470.882C231.628,470.851 231.643,470.82 231.655,470.789C231.666,470.762 231.682,470.735 231.701,470.716C231.717,470.696 231.724,470.673 231.728,470.642C231.763,470.639 231.786,470.623 231.79,470.596C231.794,470.569 231.806,470.542 231.817,470.519C231.821,470.511 231.829,470.503 231.84,470.496C231.848,470.492 231.852,470.484 231.848,470.473C231.844,470.426 231.852,470.384 231.867,470.349C231.883,470.314 231.898,470.28 231.91,470.245C231.914,470.229 231.921,470.214 231.925,470.199C231.929,470.183 231.932,470.168 231.94,470.156Z" style="fill:white;fill-rule:nonzero;"/>
        <path d="M233.454,470.027C233.427,470.046 233.4,470.073 233.373,470.073C233.342,470.069 233.315,470.077 233.296,470.092C233.273,470.108 233.246,470.119 233.219,470.127C233.192,470.131 233.165,470.143 233.145,470.162C233.126,470.181 233.099,470.193 233.064,470.197C232.991,470.201 232.948,470.243 232.902,470.286C232.89,470.297 232.879,470.305 232.867,470.309C232.856,470.313 232.84,470.32 232.828,470.328L232.794,470.34C232.782,470.343 232.774,470.351 232.763,470.355C232.736,470.371 232.693,470.363 232.682,470.336C232.67,470.289 232.655,470.239 232.682,470.197C232.709,470.135 232.698,470.073 232.69,470.034C232.686,470.015 232.682,469.996 232.682,469.977C232.678,469.969 232.682,469.961 232.686,469.953C232.689,469.946 232.693,469.938 232.689,469.93C232.686,469.903 232.678,469.88 232.674,469.853C232.666,469.83 232.666,469.807 232.67,469.78L232.67,469.702C232.689,469.656 232.686,469.602 232.674,469.552C232.67,469.532 232.67,469.509 232.674,469.49C232.678,469.47 232.678,469.451 232.678,469.432C232.674,469.409 232.674,469.385 232.674,469.358C232.674,469.312 232.655,469.27 232.62,469.235C232.601,469.219 232.585,469.2 232.57,469.181L232.585,469.165C232.566,469.154 232.551,469.142 232.535,469.131C232.52,469.119 232.504,469.111 232.485,469.107C232.45,469.1 232.423,469.084 232.4,469.061C232.373,469.042 232.346,469.022 232.319,469.011C232.307,469.007 232.3,468.999 232.292,468.995L232.261,468.984C232.242,468.976 232.227,468.964 232.211,468.953C232.196,468.941 232.176,468.934 232.157,468.93C232.146,468.926 232.134,468.922 232.126,468.91C232.107,468.891 232.084,468.868 232.041,468.891C231.995,468.914 232.01,468.941 232.014,468.968L232.014,469.057C232.018,469.076 232.007,469.092 231.98,469.096L232.007,469.115C232.003,469.127 231.999,469.138 231.995,469.15L231.983,469.188C231.972,469.208 231.964,469.231 231.964,469.25C231.953,469.254 231.941,469.262 231.929,469.27L231.895,469.293C231.875,469.312 231.86,469.328 231.871,469.37C231.875,469.385 231.868,469.416 231.856,469.428C231.817,469.467 231.802,469.521 231.81,469.594C231.813,469.621 231.802,469.637 231.775,469.637C231.744,469.64 231.725,469.648 231.721,469.691C231.717,469.702 231.713,469.714 231.705,469.725C231.698,469.737 231.698,469.752 231.709,469.772C231.69,469.791 231.682,469.814 231.686,469.841C231.686,469.872 231.674,469.895 231.655,469.907C231.643,469.911 231.636,469.922 231.64,469.934C231.647,469.953 231.647,469.969 231.64,469.98C231.62,470 231.597,470.027 231.585,470.061L231.562,470.116C231.555,470.135 231.551,470.158 231.551,470.177C231.551,470.197 231.539,470.212 231.52,470.224C231.516,470.224 231.512,470.231 231.508,470.251L231.497,470.316C231.493,470.34 231.485,470.363 231.481,470.382C231.477,470.394 231.477,470.405 231.473,470.417C231.47,470.428 231.466,470.44 231.466,470.452C231.47,470.517 231.446,470.571 231.419,470.614C231.388,470.672 231.377,470.726 231.373,470.792C231.373,470.803 231.373,470.822 231.361,470.826C231.346,470.83 231.342,470.842 231.346,470.857C231.35,470.873 231.35,470.888 231.346,470.9L231.334,470.923C231.331,470.931 231.323,470.938 231.319,470.942C231.288,470.962 231.284,470.996 231.284,471.031C231.284,471.066 231.276,471.104 231.257,471.139C231.219,471.213 231.141,471.305 231.246,471.425C231.319,471.421 231.346,471.371 231.373,471.325C231.4,471.267 231.423,471.213 231.466,471.17C231.5,471.132 231.528,471.089 231.539,471.043C231.547,471.012 231.558,470.985 231.578,470.958C231.597,470.935 231.605,470.904 231.609,470.869C231.609,470.865 231.613,470.861 231.616,470.861C231.62,470.861 231.624,470.857 231.628,470.853C231.636,470.842 231.643,470.826 231.655,470.811C231.663,470.799 231.67,470.784 231.678,470.765L231.717,470.691C231.748,470.641 231.763,470.598 231.798,470.517C231.829,470.44 231.864,470.359 231.895,470.297C231.906,470.27 231.918,470.251 231.922,470.243C231.933,470.224 231.937,470.208 231.941,470.189C231.953,470.177 231.964,470.162 231.976,470.146L232.01,470.108C232.022,470.096 232.018,470.085 232.007,470.073C231.995,470.065 231.983,470.058 231.98,470.05L231.987,470.038C231.987,470.038 231.987,470.034 231.991,470.031C231.999,470.027 232.003,470.023 232.003,470.015L232.041,469.953C232.053,469.934 232.068,469.911 232.088,469.892C232.119,469.857 232.157,469.814 232.115,469.741C232.126,469.729 232.138,469.722 232.153,469.71L232.2,469.849C232.211,469.861 232.227,469.892 232.242,469.922C232.246,469.942 232.254,469.957 232.261,469.969L232.269,469.996C232.273,470.023 232.28,470.046 232.288,470.073C232.292,470.1 232.292,470.123 232.288,470.143C232.277,470.185 232.284,470.197 232.326,470.224C232.311,470.235 232.3,470.243 232.288,470.247C232.3,470.282 232.307,470.316 232.307,470.351C232.307,470.386 232.304,470.409 232.292,470.421C232.296,470.432 232.296,470.444 232.3,470.452C232.304,470.463 232.304,470.471 232.304,470.479C232.3,470.502 232.3,470.525 232.296,470.544C232.292,470.568 232.292,470.591 232.296,470.61C232.315,470.683 232.28,470.714 232.23,470.741C232.207,470.753 232.192,470.765 232.184,470.784C232.169,470.815 232.157,470.842 232.107,470.826C232.103,470.826 232.099,470.838 232.099,470.838C232.041,470.896 231.991,470.946 231.933,470.996C231.922,471.008 231.906,471.019 231.891,471.031C231.871,471.043 231.864,471.054 231.86,471.066C231.856,471.101 231.84,471.128 231.817,471.143C231.79,471.159 231.775,471.182 231.771,471.216C231.771,471.228 231.755,471.228 231.744,471.228C231.74,471.236 231.74,471.244 231.744,471.251C231.744,471.259 231.74,471.267 231.736,471.271C231.732,471.286 231.725,471.301 231.717,471.313C231.701,471.344 231.694,471.371 231.686,471.402C231.682,471.417 231.674,471.433 231.67,471.444C231.651,471.491 231.628,471.537 231.64,471.599C231.643,471.611 231.643,471.626 231.64,471.638C231.636,471.649 231.636,471.665 231.636,471.676C231.636,471.695 231.64,471.707 231.643,471.715C231.67,471.761 231.694,471.808 231.709,471.854C231.767,472.005 231.914,472.043 232.038,472.09C232.099,472.113 232.161,472.136 232.219,472.163C232.223,472.167 232.23,472.172 232.238,472.168C232.246,472.164 232.254,472.163 232.261,472.163C232.292,472.159 232.319,472.151 232.342,472.132C232.388,472.101 232.446,472.07 232.477,471.997C232.485,471.977 232.489,471.958 232.493,471.939C232.497,471.896 232.512,471.858 232.527,471.811C232.535,471.792 232.547,471.773 232.558,471.753C232.601,471.703 232.605,471.638 232.601,471.572C232.597,471.522 232.608,471.475 232.624,471.429C232.635,471.383 232.643,471.332 232.639,471.282C232.635,471.263 232.639,471.244 232.643,471.224C232.647,471.209 232.647,471.189 232.647,471.17C232.651,471.135 232.651,471.097 232.651,471.062C232.651,471.027 232.655,470.992 232.659,470.958C232.659,470.938 232.678,470.919 232.693,470.904C232.701,470.892 232.709,470.88 232.72,470.869C232.736,470.85 232.751,470.834 232.771,470.803C232.786,470.784 232.805,470.765 232.825,470.753C232.867,470.73 232.913,470.707 232.96,470.66C233.002,470.618 233.049,470.575 233.099,470.537L233.168,470.479C233.18,470.475 233.188,470.463 233.199,470.452C233.207,470.44 233.215,470.436 233.219,470.44C233.246,470.452 233.265,470.448 233.277,470.432C233.288,470.421 233.3,470.409 233.315,470.405C233.335,470.401 233.35,470.386 233.354,470.367C233.358,470.347 233.369,470.336 233.396,470.332L233.392,470.32C233.4,470.316 233.408,470.313 233.412,470.313C233.416,470.313 233.423,470.309 233.427,470.305L233.466,470.266C233.489,470.243 233.516,470.22 233.539,470.204C233.562,470.193 233.578,470.158 233.589,470.116C233.593,470.096 233.601,470.073 233.609,470.05C233.566,470.007 233.497,470 233.454,470.027ZM232.28,471.383C232.261,471.402 232.246,471.429 232.242,471.456C232.23,471.514 232.223,471.56 232.211,471.591C232.2,471.626 232.196,471.661 232.165,471.672C232.169,471.545 232.192,471.433 232.284,471.344C232.284,471.348 232.284,471.356 232.288,471.363C232.288,471.371 232.284,471.379 232.28,471.383Z" style="fill:white;fill-rule:nonzero;"/>
        <path d="M235.857,470.096C235.827,470.112 235.803,470.123 235.776,470.142C235.714,470.204 235.672,470.278 235.629,470.355C235.602,470.409 235.571,470.459 235.537,470.509L235.432,470.664C235.359,470.691 235.34,470.749 235.328,470.822L235.316,470.853C235.313,470.861 235.305,470.868 235.301,470.88C235.193,471.055 235.104,471.24 235.034,471.437C234.992,471.545 234.926,471.634 234.86,471.727C234.857,471.731 234.853,471.731 234.849,471.731C234.841,471.731 234.833,471.731 234.829,471.735C234.802,471.719 234.787,471.7 234.779,471.677C234.764,471.634 234.775,471.588 234.791,471.542C234.799,471.518 234.802,471.495 234.799,471.472C234.787,471.383 234.791,471.302 234.802,471.221C234.814,471.144 234.822,471.062 234.829,470.981C234.841,470.9 234.849,470.819 234.86,470.738C234.876,470.584 234.891,470.445 234.911,470.348L234.934,470.201C234.938,470.182 234.938,470.159 234.934,470.136C234.93,470.116 234.93,470.093 234.93,470.07C234.93,470.027 234.938,469.989 234.972,469.958C234.976,469.954 234.98,469.946 234.98,469.935C234.98,469.927 234.98,469.919 234.976,469.912C234.965,469.877 234.965,469.846 234.972,469.819C234.98,469.792 234.988,469.761 234.992,469.734C235.007,469.63 235.011,469.518 235.011,469.409C235.011,469.351 234.988,469.29 234.926,469.259C234.818,469.201 234.702,469.151 234.59,469.108C234.529,469.081 234.502,469.1 234.475,469.158L234.405,469.321C234.382,469.375 234.355,469.429 234.328,469.479C234.266,469.587 234.212,469.695 234.162,469.807C234.112,469.919 234.05,470.027 233.98,470.128L233.972,470.159C233.968,470.248 233.945,470.321 233.907,470.387C233.864,470.452 233.829,470.518 233.795,470.588C233.791,470.591 233.783,470.595 233.771,470.591L233.74,470.591C233.744,470.564 233.752,470.541 233.764,470.518C233.775,470.495 233.771,470.468 233.756,470.433C233.752,470.421 233.748,470.406 233.752,470.394C233.756,470.383 233.756,470.367 233.76,470.356C233.768,470.302 233.775,470.248 233.779,470.194C233.783,470.143 233.795,470.089 233.806,470.039C233.81,470.004 233.818,469.915 233.822,469.827C233.825,469.738 233.837,469.657 233.868,469.63C233.88,469.618 233.883,469.603 233.883,469.579C233.88,469.537 233.868,469.494 233.852,469.46C233.841,469.44 233.833,469.42 233.822,469.397C233.833,469.386 233.841,469.366 233.852,469.335C233.86,469.304 233.868,469.27 233.879,469.235C233.899,469.165 233.922,469.096 233.941,469.077C233.883,469.003 233.883,468.949 233.899,468.887C233.902,468.857 233.91,468.814 233.914,468.764C233.922,468.663 233.929,468.548 233.933,468.443C233.937,468.393 233.937,468.351 233.941,468.32C233.945,468.289 233.949,468.258 233.949,468.227C233.949,468.169 233.96,468.104 233.98,468.038C233.991,468.007 233.995,467.972 233.999,467.937C234.003,467.903 234.011,467.864 234.022,467.829C234.034,467.795 234.03,467.748 234.011,467.698C233.856,467.609 233.69,467.54 233.517,467.49C233.513,467.486 233.513,467.486 233.509,467.486C233.505,467.49 233.505,467.49 233.501,467.486C233.466,467.486 233.439,467.505 233.443,467.547C233.447,467.582 233.455,467.621 233.462,467.656C233.47,467.694 233.478,467.733 233.482,467.768C233.486,467.825 233.493,467.887 233.505,467.949C233.513,468.011 233.509,468.073 233.497,468.131C233.489,468.165 233.481,468.204 233.478,468.243C233.474,468.281 233.466,468.32 233.458,468.355C233.455,468.382 233.451,468.424 233.451,468.474C233.451,468.524 233.451,468.578 233.447,468.633C233.443,468.741 233.435,468.842 233.393,468.884C233.405,468.919 233.412,468.954 233.424,468.984C233.435,469.015 233.443,469.046 233.45,469.073C233.439,469.085 233.432,469.093 233.424,469.096C233.416,469.104 233.408,469.112 233.405,469.12C233.393,469.131 233.385,469.154 233.377,469.189C233.362,469.255 233.354,469.34 233.354,469.417C233.354,469.456 233.358,469.483 233.366,469.502C233.385,469.56 233.389,469.618 233.374,469.668C233.358,469.726 233.347,469.83 233.339,469.939C233.331,470.047 233.323,470.155 233.335,470.217L233.335,470.24C233.335,470.251 233.331,470.259 233.327,470.263C233.277,470.325 233.293,470.406 233.296,470.483L233.296,470.541C233.296,470.561 233.293,470.58 233.281,470.591C233.254,470.634 233.231,470.669 233.258,470.727C233.192,470.943 233.192,471.171 233.204,471.403L233.215,471.503C233.219,471.538 233.215,471.569 233.204,471.6C233.188,471.634 233.223,471.681 233.265,471.696C233.323,471.716 233.377,471.731 233.435,471.746C233.486,471.758 233.536,471.773 233.586,471.789C233.632,471.804 233.683,471.82 233.733,471.831C233.779,471.843 233.829,471.762 233.864,471.665C233.895,471.573 233.922,471.461 233.934,471.414C233.938,471.395 233.941,471.368 233.953,471.341C233.972,471.283 233.996,471.225 234.019,471.167C234.042,471.109 234.065,471.051 234.085,470.993C234.104,470.939 234.127,470.885 234.146,470.831C234.166,470.781 234.189,470.727 234.208,470.673L234.29,470.452C234.293,470.433 234.297,470.414 234.297,470.394C234.293,470.375 234.297,470.36 234.305,470.344C234.363,470.205 234.429,470.07 234.509,469.904C234.509,469.923 234.509,469.958 234.506,470.008C234.502,470.109 234.494,470.224 234.486,470.317L234.479,470.406C234.467,470.526 234.452,470.642 234.44,470.758C234.425,470.877 234.409,470.993 234.398,471.113C234.394,471.14 234.386,471.159 234.382,471.175C234.371,471.209 234.367,471.24 234.367,471.275L234.355,471.379C234.34,471.569 234.344,471.758 234.371,471.947C234.375,471.989 234.386,472.031 234.405,472.07C234.425,472.109 234.436,472.151 234.44,472.193C234.444,472.213 234.479,472.243 234.506,472.255C234.694,472.336 234.887,472.417 235.085,472.371C235.096,472.344 235.1,472.324 235.104,472.313C235.143,472.193 235.181,472.074 235.216,471.954C235.251,471.835 235.305,471.723 235.371,471.615C235.409,471.557 235.448,471.495 235.486,471.434C235.521,471.376 235.56,471.314 235.599,471.256C235.734,471.051 235.85,470.843 235.854,470.576C235.854,470.487 235.873,470.418 235.903,470.344C235.934,470.266 235.93,470.189 235.857,470.096ZM233.721,470.68C233.733,470.641 233.737,470.622 233.74,470.595C233.764,470.638 233.764,470.638 233.721,470.68Z" style="fill:white;fill-rule:nonzero;"/>
        <path d="M235.923,468.254C235.931,468.281 235.931,468.308 235.927,468.339C235.927,468.343 235.923,468.347 235.915,468.347C235.908,468.351 235.904,468.351 235.904,468.355C235.908,468.389 235.915,468.424 235.919,468.455C235.931,468.521 235.946,468.583 235.966,468.629C235.977,468.652 235.985,468.675 235.989,468.702C236,468.752 236.008,468.799 236.008,468.837C236.008,468.876 236.027,468.907 236.062,468.926C236.066,468.93 236.074,468.934 236.082,468.942C236.128,469 236.194,469.019 236.251,469L236.282,468.992C236.294,468.976 236.302,468.965 236.298,468.949C236.294,468.907 236.298,468.872 236.317,468.845C236.333,468.818 236.348,468.787 236.36,468.756C236.364,468.745 236.371,468.737 236.383,468.733C236.394,468.729 236.402,468.722 236.41,468.718C236.41,468.706 236.414,468.687 236.425,468.668C236.441,468.652 236.445,468.633 236.445,468.61C236.445,468.598 236.445,468.586 236.449,468.575C236.452,468.548 236.46,468.525 236.464,468.498C236.468,468.474 236.479,468.455 236.503,468.436C236.549,468.393 236.545,468.389 236.479,468.328C236.472,468.32 236.464,468.312 236.452,468.308C236.441,468.305 236.437,468.297 236.433,468.293C236.429,468.266 236.421,468.258 236.418,468.266C236.41,468.274 236.402,468.277 236.394,468.281C236.391,468.277 236.391,468.277 236.387,468.277C236.383,468.266 236.379,468.258 236.371,468.247C236.309,468.258 236.248,468.22 236.221,468.193C236.194,468.185 236.17,468.177 236.151,468.173C236.132,468.169 236.109,468.166 236.089,468.154C236.043,468.135 236,468.111 235.95,468.111C235.892,468.108 235.869,468.138 235.896,468.196C235.9,468.208 235.908,468.216 235.912,468.223L235.923,468.254ZM237.461,470.015L237.491,469.957C237.503,469.938 237.499,469.915 237.488,469.888C237.468,469.853 237.449,469.822 237.422,469.791C237.418,469.787 237.403,469.784 237.399,469.787C237.368,469.799 237.341,469.814 237.318,469.834C237.267,469.868 237.221,469.919 237.213,469.98C237.209,470.015 237.194,470.046 237.175,470.073C237.163,470.085 237.159,470.092 237.155,470.096C237.152,470.112 237.128,470.158 237.101,470.204C237.07,470.251 237.043,470.293 237.032,470.305C237.001,470.336 236.931,470.432 236.87,470.537C236.804,470.641 236.742,470.745 236.727,470.788C236.715,470.818 236.684,470.861 236.653,470.903C236.618,470.95 236.58,470.984 236.549,471C236.522,471.012 236.491,471.031 236.503,471.081C236.514,471.108 236.487,471.154 236.46,471.158C236.433,471.162 236.41,471.174 236.398,471.201C236.394,471.208 236.394,471.212 236.391,471.216L236.375,471.232C236.363,471.243 236.352,471.251 236.34,471.259C236.329,471.27 236.329,471.286 236.34,471.309C236.34,471.313 236.336,471.32 236.332,471.332L236.305,471.378C236.302,471.386 236.298,471.394 236.298,471.405C236.294,471.417 236.294,471.429 236.29,471.436C236.282,471.456 236.271,471.471 236.228,471.459L236.228,471.463L236.224,471.467C236.213,471.471 236.205,471.471 236.201,471.463C236.197,471.456 236.185,471.448 236.174,471.444C236.158,471.44 236.151,471.436 236.154,471.425C236.158,471.413 236.158,471.405 236.158,471.394C236.154,471.39 236.154,471.39 236.151,471.39C236.139,471.371 236.135,471.301 236.139,471.235C236.143,471.174 236.151,471.112 236.162,471.096C236.17,471.093 236.174,471.089 236.174,471.077L236.174,470.988C236.174,470.957 236.174,470.927 236.17,470.896C236.17,470.884 236.17,470.872 236.167,470.861C236.163,470.842 236.158,470.807 236.158,470.772C236.158,470.757 236.163,470.741 236.167,470.73C236.194,470.687 236.221,470.649 236.217,470.587C236.217,470.575 236.221,470.567 236.224,470.56C236.228,470.556 236.232,470.548 236.236,470.537C236.24,470.525 236.248,470.509 236.248,470.49L236.232,470.428C236.221,470.39 236.217,470.351 236.221,470.316C236.224,470.282 236.236,470.251 236.251,470.231C236.259,470.22 236.267,470.208 236.271,470.197C236.282,470.177 236.29,470.147 236.279,470.127C236.251,470.092 236.248,470.065 236.263,470.046C236.29,470.004 236.294,469.961 236.298,469.93C236.302,469.919 236.294,469.899 236.282,469.88C236.302,469.838 236.298,469.841 236.325,469.853C236.321,469.841 236.321,469.834 236.321,469.822C236.317,469.814 236.317,469.807 236.313,469.803C236.321,469.795 236.329,469.787 236.336,469.784C236.344,469.78 236.348,469.776 236.348,469.772C236.351,469.737 236.351,469.706 236.351,469.672C236.351,469.641 236.351,469.61 236.355,469.575C236.286,469.548 236.221,469.521 236.159,469.494L236.02,469.424C235.985,469.409 235.95,469.393 235.908,469.378C235.842,469.355 235.807,469.366 235.8,469.413C235.796,469.428 235.796,469.444 235.796,469.459C235.796,469.478 235.796,469.494 235.792,469.509C235.788,469.536 235.784,469.556 235.784,469.567C235.784,469.587 235.788,469.61 235.792,469.645C235.807,469.66 235.815,469.729 235.8,469.764C235.796,469.776 235.792,469.791 235.792,469.803C235.788,469.834 235.784,469.865 235.784,469.896L235.784,470.035L235.796,470.085C235.799,470.104 235.799,470.119 235.796,470.131C235.792,470.158 235.784,470.185 235.776,470.208C235.757,470.255 235.745,470.305 235.745,470.347C235.742,470.394 235.738,470.44 235.738,470.486C235.738,470.537 235.738,470.575 235.749,470.606C235.753,470.621 235.753,470.637 235.749,470.649C235.745,470.676 235.738,470.703 235.73,470.726C235.718,470.749 235.711,470.772 235.703,470.799L235.703,470.811C235.699,470.815 235.699,470.815 235.699,470.818C235.703,470.845 235.703,470.869 235.707,470.892C235.711,470.919 235.711,470.942 235.711,470.965C235.711,470.977 235.707,470.984 235.699,470.992C235.68,471.012 235.672,471.042 235.684,471.077C235.687,471.089 235.687,471.104 235.684,471.12C235.672,471.151 235.672,471.166 235.676,471.197L235.676,471.251C235.676,471.27 235.676,471.29 235.68,471.305L235.68,471.336C235.684,471.344 235.684,471.355 235.684,471.371C235.687,471.398 235.687,471.429 235.687,471.456C235.687,471.483 235.691,471.514 235.695,471.541C235.699,471.552 235.703,471.568 235.711,471.583C235.718,471.598 235.722,471.614 235.722,471.625C235.722,471.664 235.738,471.695 235.765,471.714C235.792,471.737 235.815,471.761 235.834,471.78C235.861,471.807 235.904,471.815 235.938,471.826C236.046,471.861 236.158,471.896 236.267,471.923C236.302,471.934 236.344,471.946 236.375,471.934C236.456,471.907 236.518,471.865 236.576,471.807C236.58,471.803 236.584,471.795 236.584,471.788C236.584,471.78 236.584,471.772 236.588,471.765C236.591,471.753 236.595,471.737 236.591,471.718C236.588,471.699 236.599,471.687 236.622,471.683C236.642,471.683 236.653,471.676 236.657,471.656C236.661,471.649 236.665,471.641 236.669,471.637L236.676,471.625C236.68,471.614 236.688,471.606 236.7,471.598C236.707,471.591 236.711,471.583 236.711,471.571C236.707,471.49 236.746,471.444 236.788,471.386C236.796,471.374 236.804,471.367 236.815,471.355L236.846,471.324C236.835,471.29 236.839,471.266 236.866,471.255C236.877,471.251 236.881,471.239 236.877,471.224C236.866,471.151 236.893,471.104 236.962,471.089C236.935,471.039 236.939,471 236.978,470.973C236.989,470.969 236.989,470.957 236.985,470.942C236.982,470.915 237.032,470.83 237.082,470.745C237.132,470.66 237.182,470.579 237.182,470.552L237.194,470.54C237.267,470.513 237.275,470.448 237.294,470.386C237.298,470.374 237.306,470.363 237.314,470.351C237.318,470.34 237.325,470.328 237.329,470.316C237.333,470.313 237.333,470.305 237.337,470.297C237.341,470.293 237.341,470.286 237.345,470.282C237.349,470.278 237.349,470.274 237.349,470.27C237.345,470.27 237.345,470.266 237.349,470.262C237.352,470.251 237.36,470.235 237.376,470.216C237.387,470.197 237.403,470.177 237.418,470.154C237.449,470.108 237.468,470.058 237.449,470.027L237.461,470.015Z" style="fill:white;fill-rule:nonzero;"/>
        <path d="M232.232,475.261C232.182,475.261 232.155,475.297 232.136,475.333C232.117,475.372 232.097,475.411 232.066,475.442C232.039,475.468 232.02,475.5 232.008,475.536C232.001,475.558 231.991,475.577 231.979,475.594C231.964,475.611 231.957,475.635 231.955,475.662C231.955,475.664 231.952,475.667 231.95,475.667C231.948,475.667 231.943,475.669 231.94,475.671C231.923,475.693 231.911,475.71 231.902,475.737C231.894,475.753 231.885,475.773 231.873,475.792C231.861,475.811 231.849,475.831 231.841,475.848L231.81,475.915C231.795,475.944 231.781,475.973 231.769,476C231.754,476.029 231.742,476.053 231.73,476.075C231.718,476.096 231.713,476.111 231.711,476.116C231.699,476.137 231.689,476.164 231.687,476.193C231.684,476.222 231.672,476.248 231.655,476.27C231.643,476.287 231.631,476.304 231.622,476.321C231.61,476.338 231.598,476.355 231.583,476.369C231.557,476.396 231.533,476.425 231.559,476.48C231.547,476.488 231.535,476.5 231.523,476.514C231.509,476.529 231.494,476.541 231.48,476.55L231.453,476.562L231.415,476.562C231.407,476.543 231.4,476.519 231.395,476.49L231.378,476.425C231.376,476.418 231.374,476.408 231.374,476.396C231.374,476.384 231.374,476.374 231.371,476.367C231.369,476.355 231.361,476.331 231.354,476.314C231.352,476.306 231.349,476.297 231.347,476.28C231.342,476.265 231.337,476.251 231.335,476.234C231.328,476.203 231.323,476.171 231.33,476.162C231.335,476.154 231.337,476.145 231.337,476.128L231.337,476.077C231.335,476.043 231.325,476.009 231.323,475.993C231.311,475.961 231.303,475.935 231.296,475.91C231.299,475.908 231.303,475.906 231.308,475.903C231.313,475.903 231.316,475.901 231.318,475.898C231.32,475.877 231.323,475.857 231.32,475.831C231.318,475.809 231.311,475.79 231.299,475.77C231.282,475.749 231.282,475.737 231.289,475.717C231.316,475.642 231.345,475.575 231.306,475.481C231.299,475.468 231.306,475.449 231.313,475.442C231.32,475.43 231.323,475.415 231.318,475.398C231.316,475.386 231.316,475.377 231.318,475.367L231.325,475.307C231.328,475.268 231.335,475.229 231.347,475.198C231.352,475.184 231.352,475.167 231.35,475.15C231.343,475.114 231.355,475.094 231.372,475.077C231.386,475.06 231.386,475.043 231.372,475.022C231.364,475.012 231.362,475.005 231.362,475L231.368,474.93C231.368,474.906 231.373,474.885 231.38,474.863C231.39,474.841 231.4,474.822 231.397,474.795C231.397,474.769 231.402,474.745 231.414,474.723C231.419,474.716 231.422,474.709 231.419,474.702C231.417,474.687 231.416,474.673 231.414,474.658C231.409,474.629 231.407,474.6 231.407,474.569C231.405,474.554 231.407,474.542 231.414,474.53C231.431,474.501 231.438,474.47 231.438,474.436C231.438,474.405 231.433,474.368 231.426,474.332C231.45,474.33 231.462,474.315 231.462,474.284C231.462,474.277 231.465,474.269 231.47,474.265C231.472,474.26 231.477,474.255 231.479,474.248C231.487,474.238 231.491,474.231 231.491,474.221C231.494,474.204 231.494,474.185 231.496,474.166C231.496,474.149 231.496,474.129 231.499,474.11C231.499,474.103 231.501,474.096 231.508,474.086C231.518,474.069 231.528,474.052 231.54,474.035L231.569,473.987C231.581,473.97 231.578,473.948 231.561,473.924C231.515,473.907 231.472,473.888 231.426,473.869L231.289,473.811C231.267,473.803 231.25,473.799 231.236,473.799C231.204,473.799 231.19,473.837 231.19,473.854C231.19,473.873 231.187,473.893 231.183,473.91C231.178,473.929 231.18,473.951 231.187,473.972C231.19,473.98 231.19,473.989 231.183,473.999C231.168,474.021 231.161,474.047 231.161,474.074C231.161,474.1 231.163,474.129 231.166,474.156C231.168,474.17 231.168,474.185 231.17,474.199L231.178,474.248C231.166,474.245 231.154,474.245 231.144,474.243C231.132,474.24 231.12,474.24 231.108,474.238C231.113,474.253 231.117,474.267 231.125,474.279C231.129,474.294 231.132,474.306 231.132,474.318C231.134,474.366 231.139,474.414 231.127,474.46C231.117,474.496 231.113,474.535 231.11,474.574C231.108,474.615 231.1,474.653 231.088,474.69C231.086,474.694 231.086,474.702 231.091,474.709C231.1,474.783 231.071,474.836 231.023,474.877C231.004,474.865 230.985,474.853 230.968,474.841C230.951,474.832 230.931,474.822 230.914,474.81C230.893,474.798 230.871,474.783 230.849,474.771L230.784,474.735C230.738,474.709 230.687,474.694 230.661,474.721C230.642,474.738 230.617,474.738 230.591,474.743C230.564,474.747 230.545,474.755 230.535,474.781L230.523,474.781C230.492,474.786 230.482,474.8 230.494,474.824C230.531,474.889 230.494,474.906 230.458,474.928C230.438,474.937 230.417,474.942 230.424,474.974C230.426,474.981 230.424,474.988 230.419,474.995C230.414,475.002 230.409,475.007 230.407,475.015C230.39,475.041 230.376,475.072 230.366,475.104C230.357,475.138 230.34,475.167 230.316,475.191C230.306,475.198 230.304,475.215 230.304,475.232C230.304,475.258 230.309,475.285 230.311,475.304C230.304,475.312 230.297,475.319 230.289,475.324C230.282,475.328 230.277,475.336 230.275,475.343C230.272,475.384 230.263,475.418 230.248,475.449C230.239,475.471 230.234,475.493 230.236,475.519L230.236,475.599C230.236,475.623 230.231,475.647 230.222,475.671L230.2,475.715C230.188,475.746 230.198,475.799 230.208,475.85C230.21,475.877 230.215,475.901 230.217,475.927C230.225,475.997 230.249,476.065 230.285,476.135L230.292,476.145C230.292,476.147 230.294,476.152 230.297,476.154C230.328,476.181 230.364,476.205 230.403,476.222C230.477,476.261 230.542,476.292 230.603,476.311C230.632,476.321 230.661,476.333 230.687,476.345C230.733,476.367 230.765,476.369 230.801,476.362C230.811,476.36 230.818,476.347 230.825,476.338L230.847,476.294C230.852,476.28 230.857,476.265 230.864,476.251C230.866,476.244 230.871,476.234 230.873,476.224C230.876,476.215 230.881,476.207 230.893,476.205C230.89,476.176 230.898,476.154 230.907,476.133C230.917,476.113 230.927,476.089 230.919,476.06C230.917,476.053 230.919,476.046 230.924,476.038L230.934,476.024C230.941,476.012 230.951,476.002 230.958,475.993L230.982,475.964C230.989,475.956 230.999,475.949 231.011,475.939C231.052,476.024 231.052,476.096 231.055,476.145C231.057,476.176 231.069,476.229 231.081,476.28C231.091,476.331 231.103,476.384 231.103,476.415C231.103,476.422 231.108,476.444 231.115,476.454C231.127,476.478 231.141,476.504 231.156,476.536C231.168,476.567 231.182,476.596 231.195,476.62C231.204,476.637 231.214,476.661 231.226,476.69C231.238,476.719 231.25,476.743 231.262,476.76C231.264,476.767 231.269,476.769 231.274,476.769C231.31,476.781 231.347,476.793 231.383,476.803C231.407,476.81 231.431,476.817 231.455,476.82C231.477,476.825 231.501,476.832 231.525,476.839C231.605,476.866 231.663,476.853 231.711,476.813C231.728,476.801 231.738,476.786 231.73,476.76C231.728,476.743 231.735,476.724 231.742,476.716C231.774,476.687 231.786,476.647 231.779,476.596C231.779,476.574 231.788,476.565 231.805,476.565C231.832,476.565 231.846,476.558 231.849,476.526C231.851,476.517 231.853,476.507 231.861,476.5C231.866,476.492 231.866,476.48 231.858,476.468C231.866,476.461 231.868,476.454 231.87,476.444L231.878,476.415C231.882,476.396 231.885,476.376 231.902,476.367C231.909,476.364 231.914,476.357 231.914,476.35C231.902,476.319 231.921,476.304 231.933,476.292C231.943,476.28 231.95,476.268 231.957,476.256C231.962,476.244 231.967,476.229 231.974,476.217C231.981,476.203 231.984,476.188 231.984,476.171C231.981,476.157 231.991,476.147 232.008,476.14C232.01,476.137 232.013,476.135 232.013,476.13C232.013,476.125 232.013,476.12 232.015,476.118C232.018,476.101 232.022,476.087 232.025,476.07C232.027,476.053 232.032,476.038 232.037,476.021C232.044,476.005 232.051,475.99 232.051,475.971C232.049,475.922 232.068,475.884 232.088,475.852C232.114,475.814 232.119,475.77 232.126,475.724C232.126,475.715 232.129,475.7 232.136,475.698C232.148,475.695 232.15,475.688 232.148,475.676C232.146,475.664 232.146,475.654 232.148,475.645C232.155,475.633 232.16,475.621 232.17,475.613C232.196,475.596 232.196,475.575 232.196,475.548C232.199,475.522 232.206,475.493 232.22,475.466C232.249,475.413 232.3,475.345 232.232,475.261ZM231.014,475.085C230.997,475.121 230.982,475.155 230.98,475.2C230.98,475.208 230.978,475.215 230.975,475.22L230.968,475.239C230.963,475.251 230.958,475.261 230.956,475.273L230.941,475.307C230.939,475.312 230.939,475.316 230.937,475.319C230.934,475.324 230.932,475.328 230.929,475.331C230.927,475.338 230.922,475.343 230.917,475.35C230.912,475.357 230.912,475.362 230.915,475.369C230.922,475.386 230.924,475.398 230.92,475.408C230.915,475.42 230.912,475.432 230.912,475.444C230.915,475.481 230.903,475.502 230.886,475.524C230.869,475.553 230.862,475.584 230.854,475.621C230.85,475.645 230.842,475.667 230.833,475.688L230.804,475.751C230.775,475.816 230.746,475.879 230.709,475.937C230.661,476.012 230.596,476.072 230.514,476.116C230.487,476.096 230.487,476.084 230.494,476.072C230.504,476.05 230.514,476.026 230.494,475.995C230.492,475.993 230.492,475.988 230.494,475.98C230.497,475.976 230.497,475.971 230.497,475.966C230.494,475.93 230.492,475.898 230.494,475.867C230.494,475.826 230.497,475.782 230.504,475.744C230.511,475.703 230.525,475.662 230.537,475.623C230.54,475.621 230.54,475.616 230.542,475.613C230.545,475.611 230.545,475.609 230.545,475.606C230.535,475.58 230.535,475.56 230.547,475.548C230.557,475.536 230.566,475.522 230.576,475.507C230.583,475.5 230.586,475.485 230.583,475.478C230.554,475.423 230.576,475.394 230.607,475.377C230.62,475.369 230.624,475.362 230.627,475.353C230.629,475.345 230.632,475.336 230.634,475.328L230.642,475.278C230.642,475.261 230.642,475.244 230.644,475.227C230.661,475.229 230.675,475.222 230.685,475.205C230.702,475.169 230.716,475.135 230.762,475.123C230.741,475.056 230.787,475.015 230.883,475.007L230.869,474.983C230.864,474.976 230.859,474.971 230.857,474.964C230.869,474.937 230.886,474.909 230.903,474.88C230.925,474.892 230.949,474.901 230.971,474.911C230.992,474.921 231.014,474.933 231.038,474.945L231.009,475.007C231.026,475.031 231.029,475.058 231.014,475.085Z" style="fill:white;fill-rule:nonzero;"/>
        <path d="M233.657,475.399C233.63,475.38 233.614,475.368 233.606,475.366C233.597,475.363 233.587,475.37 233.575,475.383L233.457,475.508C233.449,475.52 233.44,475.53 233.428,475.537C233.416,475.547 233.406,475.559 233.401,475.571C233.396,475.588 233.389,475.6 233.379,475.607C233.37,475.617 233.36,475.629 233.353,475.641C233.324,475.696 233.297,475.749 233.259,475.795C233.213,475.843 233.179,475.896 233.169,475.971C233.169,475.974 233.169,475.976 233.167,475.978L233.162,475.986C233.141,476.015 233.121,476.046 233.107,476.082C233.092,476.118 233.078,476.152 233.061,476.188C233.022,476.273 232.977,476.345 232.921,476.415C232.911,476.432 232.899,476.444 232.882,476.451L232.885,476.398C232.882,476.381 232.88,476.372 232.88,476.355C232.878,476.311 232.875,476.268 232.875,476.222C232.873,476.179 232.873,476.135 232.87,476.092C232.87,476.077 232.873,476.068 232.875,476.063C232.882,476.051 232.885,476.036 232.882,476.024C232.88,476.012 232.875,475.998 232.873,475.983C232.865,475.942 232.858,475.896 232.875,475.865C232.892,475.829 232.894,475.788 232.901,475.747C232.906,475.72 232.909,475.691 232.909,475.665C232.909,475.638 232.913,475.612 232.926,475.585C232.942,475.539 232.95,475.491 232.942,475.44C232.94,475.385 232.957,475.342 232.976,475.303C232.998,475.262 233.017,475.223 232.991,475.165C232.988,475.156 232.988,475.146 232.991,475.134C232.993,475.124 232.993,475.115 232.993,475.105C232.993,475.095 232.993,475.086 232.996,475.076L232.996,475.05C232.971,475.028 232.947,475.011 232.923,475.001C232.897,474.994 232.872,474.982 232.851,474.97C232.824,474.953 232.798,474.943 232.774,474.939C232.757,474.936 232.733,474.943 232.733,474.953C232.725,475.009 232.725,475.062 232.699,475.108L232.704,475.127C232.713,475.158 232.716,475.187 232.708,475.209C232.694,475.255 232.665,475.291 232.646,475.317C232.634,475.332 232.624,475.349 232.617,475.366C232.6,475.416 232.571,475.457 232.542,475.498L232.489,475.578C232.452,475.631 232.421,475.694 232.387,475.754C232.37,475.785 232.353,475.819 232.341,475.855C232.319,475.923 232.269,475.969 232.194,476.007C232.191,475.995 232.191,475.983 232.189,475.971C232.187,475.959 232.189,475.949 232.191,475.94C232.201,475.892 232.201,475.841 232.201,475.79C232.201,475.742 232.204,475.694 232.22,475.648C232.223,475.645 232.22,475.638 232.218,475.629C232.216,475.554 232.213,475.486 232.23,475.421C232.237,475.385 232.247,475.346 232.24,475.305C232.235,475.25 232.245,475.204 232.266,475.165C232.283,475.139 232.288,475.108 232.295,475.076C232.303,475.042 232.283,475.016 232.237,474.999L232.129,474.956C232.042,474.919 232.015,474.929 231.999,475.004C231.996,475.011 231.996,475.021 231.999,475.028C231.999,475.035 231.999,475.045 231.996,475.052C231.989,475.122 231.982,475.192 231.977,475.262C231.972,475.332 231.962,475.402 231.95,475.469C231.948,475.491 231.948,475.515 231.948,475.537C231.948,475.585 231.945,475.633 231.936,475.679C231.931,475.701 231.926,475.725 231.924,475.749C231.912,475.834 231.909,475.923 231.907,476.012C231.907,476.06 231.909,476.104 231.926,476.154C231.943,476.196 231.96,476.222 232.006,476.239C232.1,476.275 232.196,476.309 232.293,476.34C232.298,476.343 232.303,476.345 232.31,476.345C232.315,476.345 232.32,476.345 232.324,476.347C232.38,476.355 232.414,476.34 232.423,476.292C232.433,476.246 232.457,476.215 232.489,476.186C232.525,476.15 232.544,476.106 232.537,476.058C232.535,476.044 232.535,476.031 232.537,476.019C232.544,476 232.556,475.983 232.576,475.966C232.583,475.959 232.593,475.949 232.602,475.937C232.61,475.974 232.612,475.993 232.612,476.012C232.614,476.053 232.614,476.094 232.612,476.135C232.61,476.176 232.614,476.222 232.629,476.268C232.651,476.333 232.677,476.396 232.67,476.456C232.67,476.463 232.672,476.473 232.68,476.485L232.696,476.516C232.709,476.536 232.723,476.553 232.74,476.567L232.738,476.569C232.74,476.572 232.745,476.572 232.747,476.572L232.754,476.579C232.771,476.591 232.786,476.603 232.805,476.61L232.878,476.651C232.919,476.671 232.955,476.685 232.993,476.685C233.03,476.644 233.061,476.598 233.078,476.54C233.088,476.514 233.102,476.487 233.119,476.466C233.136,476.444 233.15,476.42 233.162,476.393C233.175,476.362 233.189,476.343 233.216,476.316C233.245,476.28 233.276,476.246 233.286,476.2C233.302,476.14 233.329,476.097 233.36,476.056L233.404,475.99C233.418,475.969 233.428,475.945 233.433,475.916C233.435,475.894 233.443,475.872 233.452,475.853C233.462,475.834 233.471,475.814 233.479,475.795C233.486,475.778 233.496,475.761 233.508,475.749C233.517,475.737 233.522,475.723 233.525,475.703C233.546,475.701 233.561,475.691 233.563,475.674C233.566,475.658 233.573,475.641 233.58,475.626C233.583,475.621 233.587,475.617 233.595,475.612C233.599,475.609 233.602,475.604 233.599,475.597C233.597,475.568 233.602,475.542 233.612,475.52C233.621,475.498 233.631,475.477 233.638,475.455C233.64,475.445 233.645,475.436 233.648,475.426C233.65,475.416 233.652,475.407 233.657,475.399Z" style="fill:white;fill-rule:nonzero;"/>
        <path d="M228.54,481.616C228.536,481.604 228.528,481.587 228.515,481.571C228.486,481.525 228.482,481.513 228.482,481.463C228.482,481.459 228.482,481.451 228.486,481.447L228.486,481.352C228.486,481.323 228.482,481.294 228.474,481.265C228.441,481.121 228.375,480.984 228.309,480.852C228.243,480.737 228.149,480.625 228.016,480.481L227.992,480.456C227.983,480.452 227.975,480.444 227.971,480.436C227.93,480.39 227.888,480.349 227.851,480.32L227.814,480.295C227.781,480.275 227.769,480.266 227.74,480.221C227.727,480.204 227.715,480.2 227.703,480.208C227.699,480.208 227.694,480.208 227.69,480.204L227.678,480.196C227.674,480.196 227.666,480.192 227.657,480.188C227.628,480.167 227.599,480.151 227.579,480.13C227.55,480.109 227.529,480.093 227.509,480.081C227.438,480.035 227.368,480.002 227.29,479.973L227.215,479.936C227.021,479.85 226.84,479.804 226.63,479.759C226.453,479.714 226.268,479.689 226.073,479.681L225.952,479.681C225.948,479.681 225.94,479.681 225.936,479.677L225.919,479.677C225.898,479.66 225.882,479.652 225.861,479.656C225.853,479.656 225.844,479.66 225.836,479.672C225.759,479.677 225.685,479.677 225.611,479.672L225.606,479.672C225.512,479.668 225.421,479.693 225.326,479.714L225.276,479.726C225.243,479.73 225.223,479.734 225.173,479.747C225.148,479.751 225.124,479.759 225.095,479.771C225.037,479.796 224.983,479.833 224.971,479.883C224.959,479.928 224.975,479.973 225.029,480.014C225.074,480.052 225.115,480.081 225.161,480.11L225.26,480.176C225.33,480.237 225.404,480.287 225.491,480.316C225.507,480.32 225.557,480.328 225.606,480.324C225.656,480.324 225.705,480.308 225.722,480.27L225.726,480.27C225.738,480.241 225.726,480.221 225.714,480.192C225.71,480.192 225.71,480.192 225.71,480.188C225.718,480.192 225.726,480.192 225.734,480.192C225.743,480.192 225.751,480.192 225.755,480.196L225.787,480.196C225.819,480.196 225.836,480.159 225.807,480.143L225.787,480.122C225.775,480.11 225.763,480.098 225.755,480.093C225.783,480.068 225.819,480.056 225.869,480.056C225.89,480.052 225.91,480.052 225.931,480.048C225.948,480.048 225.964,480.043 225.981,480.039C226.022,480.031 226.064,480.027 226.101,480.027C226.122,480.027 226.147,480.027 226.168,480.023L226.234,480.023C226.361,480.019 226.481,480.014 226.613,480.048L226.716,480.06C226.782,480.064 226.832,480.068 226.877,480.068C226.922,480.068 226.976,480.076 227.046,480.105C227.083,480.118 227.121,480.134 227.158,480.147C227.174,480.151 227.191,480.159 227.203,480.163C227.216,480.171 227.232,480.18 227.244,480.184C227.443,480.254 227.645,480.332 227.806,480.514C227.95,480.679 228.025,480.877 228.078,481.046C228.083,481.067 228.091,481.088 228.095,481.108L228.107,481.174L228.111,481.178C228.116,481.191 228.116,481.199 228.12,481.207C228.12,481.22 228.12,481.232 228.124,481.245C228.124,481.257 228.128,481.261 228.136,481.265L228.149,481.278C228.149,481.282 228.149,481.282 228.153,481.286C228.157,481.315 228.157,481.319 228.144,481.335L228.132,481.36C228.124,481.381 228.12,481.401 228.12,481.414C228.12,481.426 228.12,481.443 228.124,481.455C228.128,481.463 228.128,481.476 228.128,481.492C228.128,481.513 228.124,481.529 228.116,481.55C228.111,481.554 228.107,481.562 228.107,481.571C228.103,481.579 228.103,481.587 228.099,481.591L228.099,481.595C228.095,481.604 228.095,481.612 228.095,481.624C228.091,481.637 228.091,481.645 228.087,481.653C228.087,481.682 228.083,481.703 228.074,481.723C228.058,481.785 228.037,481.839 228.008,481.884C228.004,481.888 228,481.888 227.988,481.888C227.971,481.888 227.963,481.897 227.959,481.913L227.942,481.979C227.93,482.016 227.909,482.054 227.888,482.091C227.884,482.099 227.876,482.107 227.868,482.115L227.843,482.148C227.806,482.186 227.769,482.231 227.752,482.276L227.736,482.276C227.707,482.289 227.699,482.309 227.686,482.338C227.682,482.342 227.682,482.347 227.682,482.351C227.678,482.355 227.678,482.363 227.674,482.367C227.67,482.375 227.661,482.384 227.653,482.388C227.637,482.404 227.624,482.417 227.612,482.433L227.591,482.454C227.587,482.458 227.587,482.462 227.587,482.462C227.579,482.475 227.571,482.479 227.566,482.483L227.542,482.495C227.521,482.499 227.5,482.512 227.48,482.532C227.476,482.536 227.472,482.545 227.472,482.549L227.472,482.574C227.467,482.578 227.459,482.59 227.447,482.602C227.443,482.607 227.434,482.607 227.43,482.607C227.426,482.611 227.418,482.615 227.41,482.619L227.381,482.631C227.36,482.64 227.335,482.66 227.331,482.677C227.327,482.689 227.327,482.697 227.323,482.702C227.319,482.706 227.315,482.71 227.315,482.714C227.311,482.722 227.298,482.73 227.286,482.73C227.282,482.73 227.273,482.73 227.265,482.735C227.249,482.735 227.232,482.739 227.211,482.743C227.166,482.759 227.162,482.784 227.15,482.813L227.137,482.838C227.133,482.85 227.125,482.863 227.112,482.871C227.1,482.879 227.083,482.887 227.071,482.9C227.067,482.904 227.063,482.904 227.059,482.908L227.046,482.916C227.038,482.92 227.026,482.933 227.013,482.945C226.997,482.962 226.98,482.974 226.964,482.986L226.951,482.986C226.943,482.986 226.935,482.986 226.931,482.982C226.922,482.982 226.914,482.986 226.906,482.99C226.894,482.995 226.881,483.007 226.877,483.027C226.873,483.031 226.873,483.035 226.873,483.035C226.869,483.039 226.861,483.044 226.856,483.044L226.832,483.056C226.819,483.06 226.811,483.072 226.803,483.085C226.799,483.089 226.799,483.089 226.799,483.093L226.79,483.101C226.782,483.114 226.774,483.122 226.77,483.126C226.766,483.126 226.761,483.126 226.757,483.122L226.741,483.122C226.72,483.118 226.691,483.105 226.662,483.134C226.654,483.138 226.646,483.147 226.642,483.163L226.638,483.163C226.65,483.122 226.654,483.077 226.654,483.023C226.658,483.011 226.658,482.995 226.658,482.978C226.658,482.966 226.658,482.949 226.662,482.937C226.662,482.924 226.658,482.916 226.654,482.912L226.65,482.908L226.679,482.871L226.679,482.867C226.708,482.834 226.708,482.813 226.72,482.768L226.72,482.759C226.733,482.747 226.737,482.735 226.737,482.722C226.737,482.71 226.733,482.697 226.72,482.693L226.716,482.693L226.72,482.689L226.741,482.64L226.741,482.635C226.753,482.598 226.762,482.565 226.762,482.532C226.762,482.499 226.757,482.466 226.753,482.429L226.753,482.384C226.749,482.371 226.749,482.355 226.749,482.338L226.749,482.297C226.745,482.272 226.745,482.252 226.749,482.231C226.753,482.219 226.757,482.214 226.766,482.21C226.77,482.206 226.774,482.198 226.786,482.186C226.786,482.181 226.786,482.181 226.79,482.181C226.836,482.103 226.803,482.016 226.782,481.946L226.782,481.942C226.77,481.888 226.778,481.847 226.794,481.798L226.803,481.765C226.807,481.756 226.807,481.748 226.811,481.736C226.823,481.699 226.815,481.682 226.811,481.653C226.799,481.632 226.799,481.608 226.803,481.587L226.803,481.558C226.807,481.546 226.807,481.525 226.807,481.496C226.807,481.484 226.803,481.463 226.799,481.434L226.799,481.401C226.794,481.393 226.794,481.385 226.794,481.377C226.799,481.348 226.807,481.331 226.811,481.319C226.815,481.306 226.823,481.286 226.827,481.265L226.827,481.261C226.84,481.216 226.827,481.178 226.815,481.133C226.807,481.112 226.803,481.096 226.803,481.079C226.807,481.075 226.815,481.071 226.819,481.059C226.827,481.046 226.823,481.03 226.807,481.009L226.807,481.001C226.811,480.997 226.815,480.989 226.815,480.98C226.811,480.968 226.811,480.951 226.811,480.935L226.811,480.885C226.815,480.877 226.815,480.861 226.815,480.84C226.815,480.803 226.819,480.77 226.823,480.724C226.827,480.679 226.832,480.629 226.832,480.584L226.832,480.58C226.819,480.464 226.733,480.415 226.638,480.365L226.634,480.361C226.622,480.357 226.614,480.349 226.601,480.345C226.519,480.299 226.396,480.233 226.33,480.221C226.317,480.217 226.301,480.217 226.28,480.221C226.231,480.237 226.21,480.324 226.21,480.402C226.206,480.481 226.219,480.543 226.231,480.592C226.235,480.621 226.244,480.642 226.256,480.658C226.228,480.704 226.231,480.774 226.231,480.828L226.231,480.869C226.219,480.947 226.219,481.009 226.248,481.092C226.252,481.096 226.252,481.1 226.252,481.104C226.252,481.108 226.252,481.108 226.256,481.112C226.26,481.133 226.264,481.145 226.264,481.162C226.264,481.166 226.26,481.178 226.248,481.195C226.235,481.211 226.227,481.228 226.227,481.249L226.227,481.253C226.227,481.282 226.231,481.294 226.243,481.311L226.252,481.323C226.256,481.327 226.256,481.331 226.256,481.335L226.256,481.348L226.239,481.364C226.235,481.364 226.215,481.385 226.215,481.389L226.215,481.393C226.21,481.393 226.21,481.397 226.215,481.401C226.215,481.414 226.219,481.434 226.223,481.463C226.227,481.496 226.235,481.529 226.239,481.562C226.243,481.595 226.243,481.624 226.239,481.653C226.235,481.661 226.231,481.67 226.231,481.678C226.227,481.69 226.227,481.699 226.223,481.707C226.194,481.773 226.177,481.839 226.206,481.926C226.239,482.02 226.223,482.095 226.21,482.177C226.198,482.223 226.19,482.272 226.19,482.326C226.19,482.347 226.194,482.367 226.198,482.388C226.198,482.404 226.198,482.421 226.202,482.433C226.202,482.446 226.198,482.462 226.194,482.475C226.173,482.553 226.181,482.598 226.198,482.664C226.202,482.669 226.202,482.677 226.202,482.681C226.202,482.689 226.202,482.697 226.206,482.706C226.219,482.768 226.215,482.809 226.202,482.858C226.194,482.891 226.19,482.924 226.19,482.962L226.185,482.962C226.185,482.995 226.194,483.019 226.198,483.048C226.202,483.077 226.206,483.101 226.206,483.13L226.206,483.167C226.206,483.18 226.206,483.196 226.21,483.208C226.215,483.229 226.215,483.246 226.215,483.266L226.215,483.32L226.21,483.32C226.21,483.349 226.206,483.349 226.173,483.353C226.152,483.357 226.131,483.361 226.111,483.374C226.077,483.39 226.061,483.411 226.048,483.428C226.036,483.444 226.036,483.453 226.007,483.457C225.94,483.469 225.907,483.486 225.853,483.515C225.783,483.561 225.693,483.569 225.606,483.582C225.561,483.586 225.528,483.59 225.483,483.603C225.355,483.632 225.218,483.615 225.082,483.598L225.062,483.594C224.975,483.582 224.917,483.569 224.851,483.507C224.814,483.474 224.785,483.436 224.756,483.399C224.752,483.386 224.744,483.378 224.736,483.365C224.719,483.349 224.69,483.312 224.678,483.307C224.674,483.303 224.67,483.303 224.67,483.299L224.657,483.291L224.657,483.283C224.645,483.266 224.641,483.25 224.608,483.229L224.604,483.229C224.558,483.2 224.529,483.208 224.509,483.221C224.472,483.241 224.447,483.279 224.439,483.332C224.439,483.353 224.455,483.369 224.476,483.369C224.48,483.374 224.488,483.382 224.496,483.394C224.5,483.407 224.509,483.415 224.513,483.419C224.525,483.44 224.538,483.461 224.55,483.474C224.595,483.524 224.637,483.561 224.682,483.594C224.765,483.66 224.868,483.722 225,483.775C225.148,483.836 225.318,483.869 225.503,483.869C225.553,483.869 225.611,483.865 225.664,483.861L225.71,483.861C225.722,483.865 225.738,483.865 225.751,483.865C225.775,483.865 225.795,483.865 225.828,483.844C225.832,483.84 225.832,483.84 225.836,483.84C225.84,483.84 225.84,483.84 225.84,483.836L225.848,483.836C225.848,483.84 225.848,483.84 225.853,483.84L225.878,483.84C225.977,483.836 226.09,483.808 226.169,483.775C226.185,483.767 226.202,483.763 226.219,483.758C226.252,483.754 226.297,483.742 226.334,483.734C226.371,483.726 226.4,483.713 226.445,483.693C226.498,483.664 226.552,483.64 226.614,483.636C226.634,483.636 226.655,483.615 226.642,483.594L226.626,483.547C226.655,483.547 226.688,483.551 226.716,483.555C226.766,483.568 226.811,483.572 226.856,483.56C226.922,483.543 226.968,483.498 227.005,483.452C227.013,483.448 227.021,483.44 227.034,483.428C227.034,483.423 227.038,483.419 227.046,483.415C227.067,483.399 227.092,483.378 227.092,483.349C227.092,483.329 227.075,483.316 227.063,483.304C227.059,483.304 227.059,483.304 227.059,483.3C227.087,483.296 227.133,483.292 227.149,483.292C227.154,483.292 227.162,483.292 227.166,483.287L227.182,483.287C227.228,483.275 227.249,483.254 227.277,483.234C227.315,483.197 227.335,483.184 227.385,483.176C227.43,483.168 227.467,483.164 227.504,483.16C227.521,483.16 227.538,483.155 227.554,483.151C227.624,483.123 227.649,483.106 227.678,483.052C227.699,483.019 227.727,482.999 227.76,482.978C227.781,482.966 227.802,482.953 227.814,482.941C227.909,482.875 227.996,482.801 228.107,482.697C228.173,482.644 228.21,482.574 228.256,482.495C228.276,482.45 228.301,482.413 228.334,482.367C228.338,482.359 228.346,482.351 228.355,482.338C228.371,482.322 228.383,482.309 228.392,482.293C228.396,482.285 228.4,482.276 228.404,482.272C228.433,482.235 228.429,482.214 228.425,482.186L228.425,482.157C228.425,482.128 228.429,482.12 228.441,482.091C228.453,482.062 228.466,482.029 228.466,481.983C228.466,481.95 228.47,481.926 228.482,481.897C228.495,481.868 228.507,481.831 228.503,481.785L228.503,481.769C228.499,481.756 228.499,481.732 228.499,481.703C228.499,481.674 228.503,481.661 228.515,481.661C228.536,481.661 228.552,481.637 228.54,481.616Z" style="fill:white;fill-rule:nonzero;"/>
        <path d="M229.62,479.685L229.641,479.685L229.707,479.668C229.727,479.664 229.748,479.652 229.764,479.631L229.785,479.611C229.789,479.602 229.797,479.598 229.802,479.602C229.822,479.602 229.839,479.598 229.851,479.586L229.884,479.561C229.934,479.512 230,479.499 230.066,479.483C230.144,479.47 230.21,479.429 230.26,479.379C230.305,479.334 230.359,479.309 230.412,479.293C230.462,479.28 230.507,479.272 230.553,479.243C230.573,479.227 230.606,479.21 230.594,479.173C230.577,479.119 230.569,479.062 230.507,479.025C230.503,479.02 230.499,479.016 230.495,479.008C230.487,478.992 230.474,478.971 230.474,478.954C230.47,478.938 230.462,478.917 230.454,478.897C230.45,478.888 230.441,478.88 230.433,478.868C230.433,478.864 230.429,478.855 230.425,478.851L230.375,478.802C230.359,478.785 230.342,478.769 230.33,478.752C230.305,478.723 230.276,478.715 230.243,478.723C230.206,478.727 230.181,478.748 230.169,478.793C230.161,478.831 230.144,478.859 230.119,478.888C230.111,478.901 230.103,478.913 230.09,478.925C230.078,478.938 230.07,478.946 230.066,478.959C230.045,479 230.016,479.029 229.971,479.045C229.954,479.049 229.938,479.058 229.921,479.07C229.888,479.091 229.859,479.119 229.843,479.148C229.835,479.161 229.826,479.177 229.814,479.19C229.785,479.235 229.76,479.28 229.707,479.297C229.694,479.301 229.682,479.309 229.67,479.318C229.645,479.338 229.616,479.351 229.587,479.363L229.537,479.388C229.537,479.384 229.537,479.375 229.533,479.371C229.521,479.384 229.509,479.4 229.496,479.417C229.484,479.433 229.467,479.445 229.451,479.458C229.414,479.487 229.372,479.499 229.327,479.516C229.323,479.52 229.323,479.52 229.319,479.52L229.31,479.528C229.298,479.573 229.265,479.598 229.228,479.619C229.191,479.639 229.15,479.668 229.129,479.705C229.096,479.705 229.075,479.726 229.071,479.763L229.059,479.775C229.055,479.779 229.046,479.779 229.042,479.784C229.038,479.788 229.034,479.792 229.03,479.792L229.013,479.804C228.997,479.821 228.993,479.837 229.001,479.853C229.005,479.874 229.005,479.89 228.993,479.911C229.005,479.915 229.013,479.915 229.022,479.911C229.026,479.907 229.034,479.911 229.038,479.915C229.075,479.944 229.121,479.931 229.15,479.915C229.195,479.894 229.24,479.882 229.29,479.87C229.335,479.862 229.381,479.845 229.426,479.816C229.447,479.796 229.484,479.779 229.504,479.792C229.525,479.804 229.542,479.804 229.55,479.792C229.558,479.779 229.566,479.771 229.579,479.759L229.591,479.742C229.595,479.738 229.595,479.738 229.599,479.734L229.612,479.71C229.612,479.701 229.616,479.693 229.62,479.685ZM229.356,482.817C229.352,482.805 229.344,482.792 229.339,482.78C229.331,482.768 229.323,482.755 229.319,482.743C229.315,482.722 229.302,482.706 229.29,482.685C229.273,482.668 229.273,482.648 229.29,482.627L229.327,482.578C229.344,482.545 229.385,482.516 229.434,482.499C229.455,482.491 229.48,482.483 229.5,482.47C229.513,482.466 229.525,482.458 229.537,482.454C229.55,482.45 229.558,482.446 229.562,482.433C229.608,482.367 229.67,482.33 229.748,482.301C229.777,482.289 229.814,482.268 229.826,482.239C229.859,482.128 229.954,482.074 230.041,482.029C230.138,481.979 230.187,481.909 230.237,481.826C230.241,481.814 230.249,481.806 230.253,481.793C230.257,481.785 230.261,481.777 230.27,481.773C230.348,481.723 230.381,481.645 230.426,481.566C230.439,481.55 230.447,481.533 230.451,481.513C230.455,481.492 230.468,481.475 230.48,481.463C230.525,481.418 230.533,481.368 230.546,481.314C230.566,481.219 230.591,481.137 230.641,481.058C230.657,481.038 230.674,481.001 230.661,480.972C230.645,480.939 230.641,480.906 230.649,480.877C230.653,480.848 230.653,480.819 230.649,480.782L230.612,480.757C230.599,480.753 230.587,480.745 230.575,480.732C230.558,480.712 230.538,480.699 230.513,480.695C230.488,480.691 230.472,480.679 230.459,480.662C230.422,480.592 230.364,480.563 230.303,480.53C230.241,480.501 230.183,480.468 230.125,480.435C230.063,480.406 230.002,480.377 229.94,480.357C229.894,480.34 229.865,480.348 229.836,480.361C229.783,480.394 229.729,480.431 229.696,480.48C229.676,480.518 229.651,480.551 229.626,480.58C229.597,480.608 229.572,480.641 229.548,480.675C229.51,480.724 229.465,480.769 229.416,480.807C229.366,480.844 229.333,480.897 229.312,480.963C229.308,480.976 229.296,480.984 229.283,480.988C229.222,481.025 229.16,481.063 229.189,481.158C229.189,481.162 229.184,481.17 229.18,481.182C229.135,481.236 229.123,481.298 229.11,481.368C229.106,481.376 229.102,481.385 229.094,481.389C229.085,481.397 229.077,481.405 229.073,481.409L229.032,481.484C229.015,481.508 229.011,481.541 229.023,481.579C229.036,481.599 229.015,481.628 228.995,481.641C228.966,481.661 228.949,481.69 228.945,481.719L228.933,481.752C228.924,481.76 228.916,481.773 228.912,481.785C228.908,481.797 228.9,481.806 228.896,481.814L228.883,481.851C228.879,481.876 228.875,481.901 228.875,481.925L228.863,482.004C228.858,482.041 228.842,482.078 228.871,482.124C228.875,482.128 228.879,482.136 228.875,482.144L228.863,482.177C228.858,482.198 228.85,482.218 228.846,482.239C228.834,482.28 228.83,482.326 228.838,482.375C228.842,482.4 228.838,482.425 228.834,482.446C228.821,482.499 228.85,482.611 228.883,482.718C228.916,482.825 228.957,482.929 228.974,482.949C229.044,483.048 229.147,483.093 229.242,483.139C229.288,483.159 229.321,483.171 229.341,483.184C229.362,483.196 229.383,483.209 229.403,483.217C229.44,483.233 229.482,483.246 229.568,483.274C229.704,483.32 229.828,483.32 229.94,483.27C229.96,483.262 229.981,483.254 230.002,483.241C230.022,483.229 230.043,483.221 230.063,483.217C230.142,483.2 230.195,483.163 230.216,483.085C230.278,483.114 230.307,483.089 230.336,483.056C230.352,483.028 230.377,483.028 230.406,483.023C230.435,483.019 230.472,483.003 230.484,482.982C230.505,482.933 230.517,482.912 230.533,482.896C230.546,482.879 230.55,482.871 230.579,482.858C230.624,482.838 230.645,482.805 230.665,482.759C230.67,482.751 230.678,482.743 230.682,482.73C230.686,482.722 230.694,482.718 230.698,482.718C230.736,482.718 230.76,482.706 230.769,482.681C230.777,482.66 230.785,482.635 230.798,482.615C230.826,482.553 230.847,482.507 230.913,482.479C230.942,482.466 230.958,482.437 230.963,482.408C230.967,482.375 230.987,482.355 231.008,482.334C231.024,482.313 231.041,482.289 231.041,482.251C231.041,482.247 231.057,482.239 231.07,482.239C231.099,482.239 231.119,482.231 231.128,482.214C231.14,482.181 231.152,482.132 231.161,482.078C231.169,482.029 231.194,481.979 231.227,481.929C231.243,481.909 231.26,481.884 231.276,481.859C231.326,481.781 231.367,481.702 231.338,481.591L231.326,481.55C231.322,481.537 231.313,481.529 231.297,481.521C231.264,481.508 231.256,481.529 231.239,481.546C231.231,481.558 231.218,481.566 231.206,481.57C231.177,481.583 231.161,481.587 231.132,481.616C231.119,481.636 231.107,481.661 231.099,481.682L231.062,481.744C231.024,481.793 230.987,481.839 230.942,481.884C230.921,481.909 230.901,481.938 230.884,481.967C230.864,481.996 230.835,482.02 230.798,482.033C230.793,482.033 230.785,482.037 230.781,482.049C230.731,482.132 230.69,482.21 230.608,482.272C230.571,482.301 230.533,482.33 230.501,482.363C230.463,482.396 230.426,482.425 230.389,482.454C230.369,482.47 230.348,482.487 230.327,482.507C230.307,482.528 230.282,482.545 230.257,482.561C230.216,482.586 230.179,482.615 230.146,482.648C230.109,482.685 230.063,482.706 230.01,482.714C229.977,482.718 229.936,482.747 229.931,482.776C229.931,482.821 229.915,482.829 229.878,482.842C229.869,482.842 229.861,482.846 229.853,482.85C229.836,482.867 229.824,482.875 229.82,482.891C229.816,482.904 229.812,482.908 229.808,482.912C229.762,482.929 229.717,482.949 229.68,482.97C229.642,482.995 229.597,483.007 229.543,483.011L229.494,483.011C229.49,483.011 229.477,483.011 229.461,483.015C229.44,483.006 229.428,483.007 229.42,483.011C229.403,483.023 229.395,483.032 229.383,483.019C229.378,483.015 229.366,482.999 229.354,482.97C229.341,482.949 229.333,482.929 229.321,482.912C229.325,482.891 229.333,482.875 229.341,482.862C229.344,482.85 229.352,482.834 229.356,482.817ZM229.393,482.016C229.405,481.996 229.414,481.983 229.418,481.971C229.422,481.958 229.43,481.95 229.438,481.942C229.459,481.913 229.48,481.905 229.463,481.859C229.459,481.843 229.476,481.818 229.492,481.806C229.537,481.76 229.558,481.702 229.57,481.636C229.575,481.616 229.583,481.595 229.595,481.574C229.604,481.558 229.612,481.537 229.624,481.517L229.637,481.492C229.641,481.488 229.641,481.48 229.645,481.471C229.651,481.422 229.676,481.38 229.721,481.352C229.737,481.347 229.746,481.335 229.746,481.323C229.746,481.281 229.758,481.244 229.779,481.215C229.82,481.153 229.861,481.087 229.911,481.005C229.936,480.968 229.969,480.93 230.006,480.902C230.018,480.897 230.022,480.885 230.026,480.869L230.039,480.831C230.043,480.836 230.051,480.836 230.055,480.836L230.059,480.836C230.105,480.873 230.105,480.914 230.092,480.947C230.088,480.98 230.096,481.017 230.101,481.05C230.105,481.087 230.101,481.12 230.063,481.141C230.03,481.162 230.026,481.191 230.026,481.236C230.03,481.285 230.018,481.327 229.985,481.364C229.94,481.409 229.911,481.455 229.882,481.517C229.874,481.541 229.861,481.562 229.849,481.574C229.832,481.591 229.816,481.607 229.803,481.628C229.766,481.674 229.729,481.723 229.7,481.773C229.667,481.822 229.63,481.872 229.593,481.917C229.572,481.938 229.552,481.958 229.527,481.975C229.502,481.991 229.477,482.008 229.457,482.029C229.453,482.033 229.444,482.029 229.436,482.024C229.422,482.02 229.41,482.02 229.393,482.016Z" style="fill:white;fill-rule:nonzero;"/>
        <path d="M234.966,479.627L234.623,479.627C234.512,479.631 234.4,479.631 234.289,479.631C234.235,479.631 234.177,479.631 234.124,479.627C234.008,479.623 233.889,479.631 233.769,479.656C233.649,479.681 233.484,479.685 233.278,479.677C233.175,479.672 233.067,479.677 232.964,479.681C232.886,479.685 232.807,479.681 232.729,479.668C232.65,479.656 232.572,479.664 232.494,479.685C232.485,479.689 232.477,479.689 232.465,479.685C232.452,479.681 232.436,479.681 232.423,479.677C232.341,479.668 232.258,479.656 232.18,479.639C232.101,479.627 232.019,479.627 231.94,479.639C231.936,479.644 231.916,479.644 231.887,479.644C231.858,479.644 231.829,479.639 231.808,479.635L231.821,479.565C231.825,479.545 231.833,479.528 231.846,479.512C231.874,479.466 231.895,479.417 231.903,479.363C231.912,479.309 231.928,479.26 231.949,479.214C231.961,479.19 231.969,479.165 231.973,479.136C231.978,479.111 231.994,479.091 232.019,479.074C232.085,479.025 232.031,478.934 231.961,478.921C231.846,478.905 231.738,478.868 231.639,478.798C231.606,478.777 231.565,478.765 231.528,478.752C231.503,478.74 231.483,478.74 231.47,478.748C231.437,478.769 231.45,478.835 231.47,478.888C231.478,478.917 231.474,478.942 231.454,478.963C231.433,478.992 231.425,479.029 231.433,479.074C231.437,479.086 231.433,479.099 231.429,479.111C231.421,479.124 231.412,479.136 231.408,479.148C231.404,479.161 231.396,479.177 231.388,479.19C231.375,479.206 231.371,479.223 231.367,479.239C231.363,479.309 231.351,479.375 231.338,479.437C231.326,479.499 231.309,479.565 231.297,479.631C231.231,479.615 231.165,479.611 231.103,479.615C231.037,479.623 230.975,479.623 230.914,479.619C230.798,479.606 230.687,479.594 230.575,479.606C230.398,479.619 230.224,479.611 230.043,479.573C229.981,479.561 229.952,479.586 229.964,479.648C229.969,479.664 229.969,479.681 229.973,479.693C229.973,479.709 229.977,479.726 229.985,479.738L230.187,480.06C230.249,480.155 230.315,480.175 230.398,480.163C230.55,480.142 230.699,480.114 230.848,480.085L230.934,480.072C230.996,480.06 231.07,480.056 231.136,480.056C231.169,480.056 231.198,480.06 231.227,480.064C231.219,480.122 231.211,480.184 231.202,480.246L231.178,480.431C231.169,480.489 231.161,480.539 231.157,480.584C231.153,480.629 231.149,480.658 231.144,480.675L231.107,480.923C231.087,481.088 231.058,481.244 231.029,481.401C231,481.558 230.971,481.723 230.967,481.888C230.963,482.058 230.951,482.272 230.938,482.524C230.922,482.776 231,483.007 231.041,483.172C231.062,483.255 231.083,483.337 231.111,483.424C231.14,483.502 231.157,483.568 231.144,483.638C231.132,483.709 231.14,483.779 231.169,483.845L231.243,484.047C231.293,484.174 231.462,484.216 231.648,484.249C231.833,484.286 232.044,484.368 232.11,484.207C232.147,484.137 232.172,484.063 232.192,483.981L232.898,482.71C232.919,482.697 232.919,482.673 232.919,482.644C232.919,482.615 232.923,482.59 232.956,482.578C232.989,482.565 233.01,482.47 233.026,482.375C233.038,482.28 233.051,482.181 233.08,482.161C233.109,482.14 233.133,482.115 233.154,482.086C233.175,482.058 233.199,482.033 233.224,482.008C233.224,482.008 233.232,481.983 233.245,481.934C233.257,481.888 233.269,481.835 233.286,481.777L233.323,481.62C233.336,481.575 233.34,481.55 233.34,481.546C233.34,481.509 233.319,481.455 233.29,481.405C233.257,481.36 233.228,481.327 233.216,481.315C233.195,481.302 233.17,481.315 233.142,481.36C233.084,481.451 233.018,481.604 232.956,481.752C232.927,481.826 232.902,481.884 232.882,481.925C232.853,481.987 232.791,482.095 232.754,482.148C232.741,482.169 232.725,482.202 232.708,482.239C232.671,482.322 232.634,482.413 232.605,482.495C232.589,482.536 232.576,482.569 232.564,482.594C232.543,482.64 232.523,482.689 232.51,482.743C232.494,482.796 232.461,482.842 232.415,482.871C232.399,482.883 232.39,482.9 232.39,482.928C232.403,482.999 232.37,483.04 232.337,483.085C232.238,483.217 232.135,483.341 232.031,483.469L231.895,483.609C231.879,483.622 231.842,483.643 231.8,483.659C231.759,483.676 231.71,483.684 231.681,483.671L231.598,483.552C231.569,483.515 231.544,483.473 231.528,483.428C231.466,483.283 231.429,483.131 231.425,482.978L231.417,482.569C231.412,482.536 231.412,482.503 231.412,482.47C231.412,482.441 231.417,482.408 231.429,482.38C231.45,482.326 231.45,482.276 231.429,482.223C231.425,482.21 231.421,482.198 231.421,482.186C231.421,482.173 231.425,482.161 231.429,482.153C231.449,482.115 231.462,482.07 231.458,482.024C231.453,481.929 231.466,481.814 231.482,481.682C231.495,481.55 231.499,481.434 231.499,481.347C231.495,481.306 231.503,481.265 231.515,481.224C231.527,481.182 231.536,481.137 231.54,481.092C231.54,481.046 231.544,481.001 231.548,480.955C231.56,480.869 231.577,480.79 231.622,480.712L231.647,480.65C231.663,480.609 231.676,480.567 231.676,480.526C231.676,480.506 231.672,480.489 231.663,480.468C231.618,480.357 231.655,480.295 231.7,480.229L231.733,480.06C231.87,480.089 231.989,480.093 232.101,480.068C232.138,480.064 232.171,480.06 232.204,480.06L232.476,480.06C232.53,480.064 232.584,480.056 232.637,480.035C232.658,480.023 232.683,480.023 232.703,480.031C232.782,480.043 232.86,480.047 232.938,480.043C233.013,480.039 233.087,480.039 233.161,480.039C233.248,480.043 233.331,480.035 233.413,480.023C233.496,480.01 233.582,480.01 233.669,480.031C233.681,480.019 233.698,480.015 233.714,480.01C233.743,480.01 233.776,480.023 233.809,480.035C233.822,480.043 233.838,480.047 233.855,480.052C233.908,480.056 233.962,480.052 234.011,480.039C234.061,480.027 234.115,480.032 234.168,480.048C234.189,480.052 234.205,480.052 234.226,480.039C234.243,480.031 234.259,480.027 234.28,480.023C234.342,480.015 234.399,480.002 234.457,479.99C234.511,479.977 234.573,479.973 234.639,479.982C234.668,479.986 234.68,479.982 234.709,479.969C234.808,479.949 234.907,479.928 235.002,479.895C235.018,479.891 235.035,479.878 235.047,479.866C235.06,479.854 235.08,479.837 235.105,479.821C235.068,479.792 235.043,479.755 235.031,479.718C235.019,479.681 234.995,479.652 234.966,479.627Z" style="fill:white;fill-rule:nonzero;"/>
        <path d="M235.791,481.454C235.783,481.442 235.766,481.434 235.737,481.434C235.675,481.446 235.626,481.454 235.63,481.5C235.63,481.52 235.622,481.533 235.605,481.541C235.581,481.553 235.564,481.57 235.552,481.582L235.51,481.632C235.498,481.64 235.494,481.648 235.494,481.656C235.494,481.665 235.494,481.673 235.498,481.685C235.453,481.722 235.424,481.76 235.391,481.805C235.382,481.817 235.374,481.83 235.362,481.838C235.349,481.85 235.345,481.863 235.345,481.875C235.349,481.896 235.341,481.916 235.321,481.933C235.3,481.949 235.283,481.966 235.271,481.982C235.25,482.007 235.23,482.032 235.209,482.053C235.184,482.073 235.16,482.098 235.139,482.119C235.127,482.131 235.114,482.139 235.11,482.152C235.102,482.164 235.085,482.172 235.065,482.176C235.052,482.176 235.044,482.251 235.044,482.255C235.032,482.292 235.007,482.387 234.99,482.42C234.986,482.424 234.986,482.428 234.986,482.441L234.978,482.474C234.974,482.494 234.97,482.519 234.957,482.519C234.945,482.523 234.933,482.536 234.924,482.556C234.904,482.593 234.887,482.643 234.875,482.684C234.871,482.705 234.862,482.721 234.854,482.725C234.842,482.73 234.829,482.75 234.821,482.779C234.813,482.812 234.805,482.833 234.792,482.841C234.78,482.853 234.763,482.87 234.751,482.89C234.739,482.915 234.722,482.94 234.706,482.965C234.669,483.014 234.627,483.064 234.578,483.076L234.532,483.023L234.462,482.779C234.417,482.746 234.417,482.672 234.425,482.593C234.433,482.515 234.454,482.441 234.466,482.424C234.446,482.391 234.429,482.366 234.446,482.333C234.45,482.321 234.45,482.304 234.45,482.276C234.45,482.222 234.442,482.152 234.437,482.094C234.433,482.065 234.433,482.044 234.433,482.032C234.437,482.032 234.442,482.02 234.446,481.991C234.45,481.962 234.454,481.949 234.458,481.949L234.429,481.888L234.52,481.834C234.487,481.78 234.47,481.731 234.499,481.685C234.508,481.673 234.512,481.661 234.516,481.648C234.516,481.636 234.52,481.619 234.524,481.607C234.528,481.595 234.536,481.578 234.541,481.562C234.545,481.545 234.549,481.529 234.561,481.516C234.607,481.462 234.59,481.434 234.487,481.401C234.466,481.396 234.446,481.388 234.425,481.38C234.404,481.372 234.384,481.363 234.363,481.359C234.363,481.351 234.363,481.343 234.367,481.335L234.367,481.318L234.264,481.268C234.194,481.235 234.128,481.211 234.079,481.223L234.075,481.223C234.066,481.223 234.062,481.227 234.062,481.231C234.058,481.235 234.054,481.24 234.05,481.252C234,481.314 233.951,481.376 233.901,481.442C233.835,481.524 233.789,481.619 233.744,481.714C233.723,481.76 233.698,481.801 233.653,481.822C233.632,481.834 233.62,481.859 233.607,481.879C233.595,481.9 233.582,481.925 233.57,481.949C233.558,481.978 233.541,481.999 233.52,482.011C233.491,482.032 233.466,482.057 233.446,482.082C233.425,482.11 233.392,482.127 233.355,482.131C233.342,482.131 233.338,482.135 233.338,482.148C233.334,482.176 233.326,482.193 233.305,482.193C233.285,482.193 233.264,482.197 233.248,482.209L233.231,482.193L233.268,482.152C233.276,482.139 233.285,482.123 233.297,482.11C233.293,482.082 233.285,482.049 233.301,482.032C233.35,481.987 233.363,481.933 233.334,481.863C233.355,481.838 233.379,481.813 233.408,481.793C233.433,481.772 233.45,481.747 233.458,481.718C233.475,481.652 233.475,481.586 233.553,481.557C233.553,481.52 233.566,481.495 233.587,481.475C233.632,481.438 233.661,481.376 233.694,481.31C233.711,481.281 233.731,481.252 233.76,481.231C233.831,481.169 233.889,481.112 233.951,481.033C233.98,480.996 234.013,480.959 234.046,480.926C234.079,480.893 234.112,480.86 234.145,480.823C234.165,480.802 234.19,480.798 234.219,480.81C234.227,480.815 234.235,480.819 234.248,480.815C234.256,480.815 234.264,480.819 234.272,480.823C234.351,480.843 234.376,480.761 234.293,480.724L233.897,480.526C233.876,480.517 233.847,480.517 233.818,480.521C233.707,480.538 233.649,480.616 233.587,480.695C233.574,480.707 233.562,480.724 233.553,480.74C233.541,480.761 233.529,480.777 233.508,480.79C233.487,480.802 233.471,480.815 233.458,480.835C233.446,480.856 233.433,480.872 233.421,480.889C233.417,480.893 233.408,480.897 233.404,480.897C233.4,480.901 233.392,480.901 233.388,480.905C233.4,480.967 233.396,480.963 233.363,480.996C233.359,481 233.355,481.008 233.355,481.013L233.342,481.029C233.322,481.054 233.301,481.083 233.285,481.112C233.268,481.141 233.239,481.165 233.202,481.178C233.186,481.19 233.165,481.207 233.169,481.223C233.174,481.268 233.149,481.281 233.12,481.297C233.095,481.318 233.083,481.339 233.079,481.359C233.067,481.396 233.042,481.421 233.005,481.438C232.96,481.458 232.935,481.483 232.931,481.545C232.931,481.599 232.902,481.648 232.869,481.685C232.849,481.714 232.832,481.727 232.832,481.772C232.832,481.822 232.824,481.871 232.746,481.871C232.766,481.949 232.75,482.007 232.696,482.053C232.667,482.077 232.659,482.11 232.676,482.156C232.684,482.181 232.684,482.209 232.671,482.238C232.647,482.337 232.634,482.436 232.638,482.536C232.643,482.544 232.642,482.552 232.642,482.56C232.638,482.569 232.638,482.577 232.638,482.585C232.638,482.614 232.638,482.643 232.651,482.672C232.671,482.725 232.791,482.816 232.857,482.837C232.939,482.857 233.021,482.882 233.104,482.919C233.165,482.948 233.231,482.969 233.301,482.977C233.346,482.981 233.379,482.969 233.384,482.94C233.396,482.886 233.421,482.837 233.45,482.796C233.479,482.758 233.504,482.713 233.516,482.668C233.529,482.618 233.553,482.577 233.582,482.54C233.611,482.503 233.636,482.465 233.657,482.424C233.665,482.408 233.678,482.395 233.69,482.383C233.702,482.37 233.719,482.362 233.731,482.35C233.785,482.304 233.823,482.238 233.818,482.168C233.831,482.164 233.852,482.143 233.881,482.11C233.905,482.077 233.926,482.057 233.947,482.044C233.934,482.073 233.922,482.135 233.914,482.201C233.905,482.267 233.905,482.333 233.938,482.37C233.934,482.375 233.934,482.375 233.938,482.379L233.959,482.738C233.959,482.742 233.959,482.754 233.963,482.767L233.963,482.849C233.963,482.862 233.963,482.87 233.959,482.874L233.947,482.874C233.943,482.878 233.938,482.878 233.934,482.878C233.934,482.878 233.938,482.882 233.943,482.895L233.972,483.031C233.984,483.093 233.988,483.15 233.988,483.171C233.992,483.2 233.996,483.217 234.005,483.229C234.017,483.254 234.099,483.287 234.161,483.299C234.19,483.303 234.223,483.311 234.252,483.324C234.38,483.361 234.512,483.394 234.648,483.415C234.677,483.419 234.702,483.423 234.726,483.423C234.751,483.423 234.776,483.423 234.796,483.427L234.821,483.369L234.825,483.369C234.838,483.349 234.854,483.324 234.875,483.303C234.891,483.283 234.908,483.262 234.92,483.241C234.924,483.229 234.933,483.221 234.937,483.221C234.999,483.192 235.019,483.163 235.048,483.126C235.069,483.101 235.089,483.06 235.11,483.006C235.131,482.952 235.155,482.915 235.176,482.89L235.176,482.853C235.188,482.841 235.197,482.82 235.205,482.791C235.213,482.763 235.222,482.73 235.234,482.692C235.25,482.626 235.271,482.56 235.3,482.544C235.321,482.527 235.354,482.482 235.374,482.428C235.391,482.379 235.407,482.329 235.407,482.3C235.407,482.288 235.415,482.263 235.432,482.234C235.448,482.205 235.457,482.185 235.461,482.172C235.465,482.16 235.469,482.152 235.477,482.143C235.481,482.139 235.49,482.131 235.494,482.119L235.572,482.011C235.576,482.007 235.581,481.999 235.581,481.991C235.576,481.982 235.581,481.974 235.585,481.97L235.597,481.958C235.642,481.929 235.671,481.9 235.675,481.867C235.68,481.83 235.696,481.793 235.725,481.76C235.746,481.739 235.758,481.714 235.754,481.689C235.75,481.669 235.758,481.644 235.779,481.623C235.762,481.578 235.795,481.541 235.824,481.508L235.791,481.454ZM233.934,482.878C233.93,482.874 233.926,482.871 233.926,482.875C233.926,482.879 233.93,482.882 233.934,482.878Z" style="fill:white;fill-rule:nonzero;"/>
        <path d="M235.585,479.602C235.593,479.631 235.593,479.66 235.589,479.693C235.589,479.697 235.585,479.701 235.577,479.701C235.569,479.705 235.565,479.705 235.565,479.71C235.569,479.747 235.577,479.784 235.581,479.817C235.593,479.887 235.61,479.953 235.631,480.002C235.643,480.027 235.651,480.052 235.655,480.081C235.668,480.134 235.676,480.184 235.676,480.225C235.676,480.266 235.697,480.299 235.734,480.32C235.738,480.324 235.746,480.328 235.754,480.337C235.804,480.398 235.874,480.419 235.936,480.398L235.969,480.39C235.981,480.374 235.99,480.361 235.986,480.345C235.981,480.299 235.986,480.262 236.006,480.233C236.023,480.205 236.039,480.172 236.052,480.139C236.056,480.126 236.064,480.118 236.076,480.114C236.089,480.11 236.097,480.101 236.105,480.097C236.105,480.085 236.109,480.064 236.122,480.044C236.138,480.027 236.142,480.007 236.142,479.982C236.142,479.969 236.142,479.957 236.146,479.945C236.151,479.916 236.159,479.891 236.163,479.862C236.167,479.837 236.179,479.817 236.204,479.796C236.254,479.751 236.25,479.747 236.179,479.681C236.171,479.672 236.163,479.664 236.151,479.66C236.138,479.656 236.134,479.648 236.13,479.643C236.126,479.615 236.118,479.606 236.113,479.615C236.105,479.623 236.097,479.627 236.089,479.631C236.085,479.627 236.085,479.627 236.08,479.627C236.076,479.615 236.072,479.606 236.064,479.594C235.998,479.606 235.932,479.565 235.903,479.536C235.874,479.528 235.849,479.52 235.829,479.516C235.808,479.511 235.783,479.507 235.763,479.495C235.713,479.474 235.668,479.45 235.614,479.45C235.552,479.445 235.527,479.478 235.556,479.54C235.56,479.553 235.569,479.561 235.573,479.569L235.585,479.602ZM237.228,481.483L237.261,481.422C237.273,481.401 237.269,481.376 237.257,481.347C237.236,481.31 237.215,481.277 237.186,481.244C237.182,481.24 237.166,481.236 237.162,481.24C237.129,481.252 237.1,481.269 237.075,481.29C237.021,481.327 236.972,481.38 236.964,481.446C236.959,481.483 236.943,481.516 236.922,481.545C236.91,481.558 236.906,481.566 236.902,481.57C236.898,481.587 236.873,481.636 236.844,481.686C236.811,481.735 236.782,481.78 236.77,481.793C236.737,481.826 236.662,481.929 236.596,482.04C236.526,482.152 236.46,482.263 236.444,482.309C236.431,482.342 236.398,482.387 236.365,482.432C236.328,482.482 236.287,482.519 236.254,482.535C236.225,482.548 236.192,482.568 236.204,482.622C236.217,482.651 236.188,482.7 236.159,482.705C236.13,482.709 236.105,482.721 236.093,482.75C236.089,482.758 236.089,482.762 236.084,482.766L236.068,482.783C236.056,482.795 236.043,482.804 236.031,482.812C236.018,482.824 236.018,482.841 236.031,482.865C236.031,482.87 236.027,482.878 236.022,482.89L235.994,482.94C235.989,482.948 235.985,482.956 235.985,482.969C235.981,482.981 235.981,482.993 235.977,483.002C235.969,483.022 235.956,483.039 235.911,483.026L235.911,483.031L235.907,483.035C235.894,483.039 235.886,483.039 235.882,483.031C235.878,483.022 235.865,483.014 235.853,483.01C235.836,483.006 235.828,483.002 235.832,482.989C235.836,482.977 235.836,482.969 235.836,482.956C235.832,482.952 235.832,482.952 235.828,482.952C235.816,482.932 235.812,482.857 235.816,482.787C235.82,482.721 235.828,482.655 235.841,482.639C235.849,482.634 235.853,482.63 235.853,482.618L235.853,482.523C235.853,482.49 235.853,482.457 235.849,482.424C235.849,482.412 235.849,482.399 235.845,482.387C235.841,482.366 235.836,482.329 235.836,482.292C235.836,482.276 235.841,482.259 235.845,482.247C235.874,482.201 235.903,482.16 235.899,482.094C235.899,482.082 235.903,482.073 235.907,482.065C235.911,482.061 235.915,482.053 235.919,482.04C235.924,482.028 235.932,482.012 235.932,481.991L235.915,481.925C235.903,481.884 235.899,481.842 235.903,481.805C235.907,481.768 235.919,481.735 235.936,481.714C235.944,481.702 235.952,481.69 235.957,481.677C235.969,481.657 235.977,481.624 235.965,481.603C235.936,481.566 235.932,481.537 235.948,481.516C235.977,481.471 235.981,481.426 235.986,481.393C235.99,481.38 235.981,481.36 235.969,481.339C235.99,481.294 235.986,481.298 236.014,481.31C236.01,481.298 236.01,481.29 236.01,481.277C236.006,481.269 236.006,481.261 236.002,481.257C236.01,481.248 236.019,481.24 236.027,481.236C236.035,481.232 236.039,481.228 236.039,481.224C236.043,481.186 236.043,481.153 236.043,481.116C236.043,481.083 236.043,481.05 236.047,481.013C235.973,480.984 235.903,480.955 235.837,480.927L235.688,480.852C235.651,480.836 235.614,480.819 235.569,480.803C235.499,480.778 235.461,480.79 235.453,480.84C235.449,480.856 235.449,480.873 235.449,480.889C235.449,480.91 235.449,480.927 235.445,480.943C235.441,480.972 235.436,480.993 235.436,481.005C235.436,481.026 235.441,481.05 235.445,481.087C235.461,481.104 235.47,481.178 235.453,481.215C235.449,481.228 235.445,481.244 235.445,481.257C235.441,481.29 235.437,481.323 235.437,481.356L235.437,481.504L235.449,481.558C235.453,481.578 235.453,481.595 235.449,481.607C235.445,481.636 235.436,481.665 235.428,481.69C235.408,481.739 235.395,481.793 235.395,481.838C235.391,481.888 235.387,481.937 235.387,481.987C235.387,482.04 235.387,482.082 235.399,482.115C235.404,482.131 235.404,482.148 235.399,482.16C235.395,482.189 235.387,482.218 235.379,482.243C235.366,482.267 235.358,482.292 235.35,482.321L235.35,482.333C235.346,482.337 235.346,482.337 235.346,482.342C235.35,482.37 235.35,482.395 235.354,482.42C235.358,482.449 235.358,482.474 235.358,482.498C235.358,482.511 235.354,482.519 235.346,482.527C235.325,482.548 235.317,482.581 235.329,482.618C235.333,482.63 235.333,482.647 235.329,482.663C235.317,482.696 235.317,482.713 235.321,482.746L235.321,482.804C235.321,482.824 235.321,482.845 235.325,482.861L235.325,482.894C235.329,482.903 235.329,482.915 235.329,482.932C235.333,482.96 235.333,482.993 235.333,483.022C235.333,483.051 235.338,483.084 235.342,483.113C235.346,483.125 235.35,483.142 235.358,483.158C235.366,483.175 235.371,483.191 235.371,483.204C235.371,483.245 235.387,483.278 235.416,483.299C235.445,483.323 235.469,483.348 235.49,483.369C235.519,483.398 235.564,483.406 235.601,483.418C235.717,483.455 235.836,483.493 235.952,483.521C235.989,483.534 236.035,483.546 236.068,483.534C236.155,483.505 236.221,483.46 236.283,483.398C236.287,483.394 236.291,483.385 236.291,483.377C236.291,483.369 236.291,483.361 236.295,483.352C236.299,483.34 236.303,483.323 236.299,483.303C236.295,483.282 236.307,483.27 236.332,483.266C236.353,483.266 236.365,483.257 236.369,483.237C236.373,483.229 236.378,483.22 236.382,483.216L236.39,483.204C236.394,483.191 236.402,483.183 236.415,483.175C236.423,483.167 236.427,483.158 236.427,483.146C236.423,483.059 236.464,483.01 236.51,482.948C236.518,482.936 236.526,482.927 236.539,482.915L236.572,482.882C236.559,482.845 236.563,482.82 236.592,482.808C236.605,482.804 236.609,482.791 236.605,482.775C236.592,482.696 236.621,482.647 236.695,482.63C236.666,482.577 236.671,482.535 236.712,482.507C236.724,482.502 236.724,482.49 236.72,482.474C236.716,482.445 236.77,482.354 236.823,482.263C236.877,482.172 236.931,482.086 236.931,482.057L236.943,482.045C237.021,482.016 237.03,481.946 237.05,481.88C237.054,481.867 237.063,481.855 237.071,481.842C237.075,481.83 237.083,481.818 237.087,481.805C237.092,481.801 237.092,481.793 237.096,481.785C237.1,481.78 237.1,481.772 237.104,481.768C237.108,481.764 237.108,481.76 237.108,481.756C237.104,481.756 237.104,481.752 237.108,481.747C237.112,481.735 237.12,481.719 237.137,481.698C237.149,481.677 237.166,481.657 237.182,481.632C237.215,481.582 237.236,481.529 237.215,481.496L237.228,481.483Z" style="fill:white;fill-rule:nonzero;"/>
        <path d="M237.628,480.852C237.632,480.831 237.64,480.765 237.64,480.699C237.64,480.637 237.636,480.575 237.616,480.555C237.607,480.547 237.607,480.538 237.611,480.526C237.616,480.514 237.632,480.476 237.64,480.439C237.649,480.406 237.649,480.369 237.645,480.353C237.632,480.324 237.624,480.291 237.653,480.262L237.665,480.233C237.665,480.225 237.669,480.216 237.673,480.204C237.678,480.2 237.678,480.179 237.673,480.15C237.665,480.088 237.657,480.01 237.657,479.932C237.657,479.895 237.661,479.862 237.669,479.841C237.669,479.824 237.669,479.8 237.673,479.767C237.678,479.738 237.678,479.705 237.682,479.672C237.686,479.639 237.686,479.606 237.69,479.577C237.694,479.548 237.694,479.523 237.694,479.507C237.698,479.502 237.706,479.49 237.711,479.465C237.715,479.445 237.723,479.416 237.727,479.387C237.735,479.325 237.735,479.263 237.731,479.23L237.702,479.23C237.682,479.218 237.657,479.209 237.632,479.205C237.578,479.205 237.517,479.205 237.467,479.214C237.413,479.222 237.351,479.218 237.294,479.209C237.265,479.205 237.232,479.205 237.203,479.201L237.141,479.201C237.12,479.197 237.1,479.201 237.079,479.218C237.038,479.251 237.058,479.304 237.079,479.358C237.096,479.412 237.108,479.445 237.116,479.494L237.129,479.573C237.141,479.626 237.153,479.68 237.182,479.684C237.182,479.696 237.182,479.721 237.178,479.754C237.174,479.791 237.17,479.816 237.17,479.829L237.191,479.895C237.199,479.923 237.199,479.956 237.195,479.961C237.182,479.981 237.174,480.01 237.174,480.051C237.17,480.097 237.17,480.122 237.166,480.126C237.162,480.142 237.162,480.163 237.17,480.188L237.195,480.27C237.211,480.324 237.219,480.377 237.186,480.394C237.182,480.398 237.178,480.41 237.178,480.439C237.174,480.493 237.178,480.563 237.182,480.621C237.182,480.679 237.182,480.695 237.162,480.724C237.149,480.741 237.153,480.757 237.17,480.774C237.178,480.782 237.182,480.79 237.186,480.802C237.191,480.827 237.195,480.831 237.195,480.889L237.195,480.988C237.191,481.058 237.186,481.128 237.182,481.145C237.17,481.174 237.165,481.261 237.169,481.277C237.174,481.294 237.182,481.339 237.182,481.384C237.182,481.405 237.182,481.426 237.178,481.442C237.174,481.463 237.174,481.471 237.17,481.475C237.108,481.529 237.141,481.574 237.174,481.628C237.186,481.632 237.157,481.71 237.145,481.739C237.166,481.756 237.174,481.822 237.178,481.888C237.182,481.954 237.186,482.024 237.199,482.057C237.199,482.069 237.182,482.102 237.166,482.135C237.145,482.173 237.124,482.21 237.124,482.239L237.124,482.288C237.12,482.313 237.12,482.338 237.12,482.362C237.116,482.412 237.112,482.461 237.108,482.478C237.104,482.494 237.103,482.511 237.116,482.527C237.128,482.544 237.124,482.565 237.108,482.585C237.087,482.614 237.087,482.701 237.087,482.713C237.087,482.734 237.096,482.783 237.104,482.833C237.108,482.862 237.108,482.887 237.108,482.911C237.108,482.936 237.104,482.957 237.096,482.969C237.087,482.981 237.083,483.002 237.083,483.039C237.083,483.109 237.087,483.188 237.091,483.25C237.096,483.279 237.096,483.295 237.096,483.295C237.05,483.349 237.067,483.39 237.112,483.435C237.116,483.44 237.12,483.448 237.116,483.456C237.112,483.473 237.108,483.481 237.108,483.514L237.108,483.576C237.108,483.6 237.108,483.621 237.112,483.642L237.112,483.832C237.108,483.856 237.108,483.877 237.108,483.898C237.108,483.939 237.112,483.951 237.124,483.984C237.137,484.021 237.149,484.067 237.149,484.112C237.149,484.137 237.162,484.158 237.182,484.178C237.215,484.199 237.252,484.224 237.285,484.224C237.318,484.219 237.351,484.215 237.385,484.203C237.418,484.195 237.451,484.186 237.484,484.182L237.533,484.182C237.55,484.182 237.566,484.182 237.587,484.178C237.616,484.174 237.64,484.174 237.669,484.178C237.723,484.191 237.822,484.092 237.727,484.046C237.715,484.026 237.711,484.009 237.698,483.993C237.682,483.964 237.669,483.939 237.665,483.906C237.661,483.902 237.657,483.881 237.649,483.852C237.632,483.794 237.616,483.72 237.599,483.646C237.583,483.572 237.578,483.559 237.591,483.493C237.595,483.464 237.591,483.444 237.578,483.435C237.57,483.431 237.566,483.419 237.566,483.39C237.562,483.365 237.561,483.336 237.561,483.307C237.561,483.279 237.562,483.254 237.566,483.229L237.566,483.192C237.558,483.18 237.554,483.167 237.558,483.147C237.562,483.109 237.574,483.064 237.591,483.027C237.595,483.006 237.599,482.994 237.599,482.986C237.566,482.965 237.562,482.903 237.566,482.837C237.57,482.775 237.587,482.721 237.591,482.705C237.595,482.684 237.624,482.598 237.587,482.569C237.574,482.56 237.57,482.544 237.57,482.515C237.57,482.511 237.57,482.499 237.566,482.478C237.561,482.457 237.561,482.437 237.561,482.412C237.557,482.367 237.557,482.317 237.574,482.288C237.582,482.272 237.582,482.251 237.578,482.222L237.566,482.152C237.537,482.14 237.512,482.065 237.529,482.036C237.55,482.007 237.574,481.979 237.595,481.946C237.616,481.908 237.624,481.875 237.616,481.838C237.595,481.772 237.583,481.727 237.599,481.665L237.616,481.574C237.628,481.512 237.632,481.454 237.611,481.438C237.607,481.434 237.607,481.426 237.607,481.413C237.607,481.401 237.607,481.384 237.611,481.364C237.611,481.327 237.624,481.285 237.636,481.269C237.673,481.223 237.653,481.17 237.636,481.133C237.624,481.104 237.628,481.075 237.645,481.054C237.649,481.05 237.648,481.042 237.648,481.025C237.648,481.009 237.649,480.988 237.645,480.968C237.64,480.922 237.632,480.881 237.628,480.852Z" style="fill:white;fill-rule:nonzero;"/>
    </g>
</svg>
